<svg width="40" height="40" viewBox="0 0 40 40" fill="none" xmlns="http://www.w3.org/2000/svg">
<path d="M31.5333 23.3332C31.3039 24.9247 30.7471 26.4513 29.898 27.8168C29.0489 29.1823 27.9259 30.3569 26.6 31.2665C26.2667 29.8832 24.2167 28.7498 21.5333 28.4332C21.8167 26.4498 22.4 24.5998 22.8 23.5332C23.4333 23.9332 24.1667 24.1665 25 24.1665C30.9167 24.1665 30 14.1665 30 14.1665C30 14.1665 29.1667 15.8332 26.6667 15.8332H25C24.2586 15.833 23.5306 16.0306 22.8911 16.4056C22.2516 16.7806 21.7237 17.3195 21.3619 17.9666C21.0001 18.6137 20.8176 19.3456 20.8331 20.0869C20.8486 20.8281 21.0615 21.5517 21.45 22.1832C22.55 21.0332 23.7333 19.9998 25 19.1665C22.8 21.3832 21.1167 24.1665 20 26.8332C18.95 24.7832 17.6333 23.2165 16.6667 22.4998C17.45 22.8332 18.1833 23.3332 18.8833 23.8332C19.0667 23.4332 19.1667 22.9832 19.1667 22.4998C19.0833 17.9498 11.6667 18.3332 11.6667 18.3332C12.1833 19.0332 12.5 19.9165 12.5 20.8332V22.4998C12.5 24.3332 14 25.8332 15.8333 25.8332C16.6667 25.8332 17.4167 25.5332 18 24.9998C18.3833 26.0498 18.6667 27.2498 18.8167 28.3998C15.95 28.6498 13.75 29.8165 13.4 31.2832C10.35 29.1665 8.33333 25.6498 8.33333 21.6665C8.33333 15.2332 13.5667 9.99984 20 9.99984V14.9998L28.3333 8.33317L20 1.6665V6.6665C16.0218 6.6665 12.2064 8.24686 9.3934 11.0599C6.58035 13.8729 5 17.6883 5 21.6665C5 25.6448 6.58035 29.4601 9.3934 32.2731C12.2064 35.0861 16.0218 36.6665 20 36.6665C27.7167 36.6665 34.0667 30.8332 34.9 23.3332H31.5333Z" fill="black" fill-opacity="0.8"/>
<path d="M25.9322 8.33317L21.5 11.8789V9.99984V8.49984H20C12.7382 8.49984 6.83333 14.4047 6.83333 21.6665C6.83333 26.1695 9.11448 30.1349 12.5448 32.5155L14.3492 33.7677L14.859 31.6313C14.8905 31.4997 15.0909 31.1233 15.8688 30.7097C16.6055 30.3179 17.6674 30.0058 18.947 29.8942L19.8425 29.8161L20.1366 30.3903L20.3807 29.8075L21.3575 29.9228C22.5505 30.0636 23.5357 30.38 24.2176 30.7601C24.9393 31.1623 25.116 31.5111 25.1417 31.6179L25.6521 33.7358L27.4486 32.5034C28.9454 31.4765 30.2132 30.1504 31.1718 28.6089C31.8992 27.4393 32.4365 26.1648 32.7666 24.8332H33.1176C31.6909 30.7621 26.3595 35.1665 20 35.1665C16.4196 35.1665 12.9858 33.7442 10.4541 31.2124C7.92232 28.6807 6.5 25.2469 6.5 21.6665C6.5 18.0861 7.92232 14.6523 10.4541 12.1206C12.9858 9.58882 16.4196 8.1665 20 8.1665H21.5V6.6665V4.78744L25.9322 8.33317ZM28.4944 17.0698C28.4494 17.6452 28.373 18.2593 28.2491 18.8664C28.0159 20.0084 27.6401 20.9959 27.1037 21.6699C26.616 22.2827 25.9818 22.6665 25 22.6665C24.6804 22.6665 24.3894 22.6148 24.1211 22.5194C24.7132 21.7051 25.3621 20.931 26.0647 20.2232L24.1756 17.9134C23.5826 18.3035 23.0104 18.731 22.4588 19.1878C22.5129 19.0187 22.5839 18.8548 22.6712 18.6986C22.9027 18.2844 23.2406 17.9395 23.6499 17.6995C24.0592 17.4595 24.5251 17.333 24.9996 17.3332H25H26.6667C27.3576 17.3332 27.9652 17.2328 28.4944 17.0698ZM16.9854 21.0698C17.0539 21.1284 17.1181 21.1892 17.1776 21.253L15.7733 23.7048C15.9524 23.8375 16.1591 24.02 16.3837 24.2482C16.2136 24.3038 16.0298 24.3332 15.8333 24.3332C14.8284 24.3332 14 23.5047 14 22.4998V20.8332C14 20.5355 13.9758 20.2415 13.9297 19.9537C14.2833 20.0036 14.652 20.0717 15.0166 20.1642C15.8369 20.3723 16.5237 20.6754 16.9854 21.0698Z" stroke="black" stroke-opacity="0.8" stroke-width="3"/>
</svg>
