<svg width="40" height="40" viewBox="0 0 40 40" fill="none" xmlns="http://www.w3.org/2000/svg">
<path d="M32.5 20.0002C34.05 20.0002 35.4667 20.4669 36.6667 21.2669V13.3335C36.6667 11.5002 35.1667 10.0002 33.3333 10.0002H22.85L21.0833 8.23353L23.4333 5.88353L22.25 4.7002L16.3667 10.5835L17.55 11.7669L19.9 9.41686L21.6667 11.1835V15.0002C21.6667 16.8335 20.1667 18.3335 18.3333 18.3335H17.4333C19.0833 20.1623 19.9976 22.5372 20 25.0002C20 25.5669 19.9333 26.1169 19.85 26.6669H25.0833C25.5 22.9169 28.65 20.0002 32.5 20.0002Z" fill="black" fill-opacity="0.8"/>
<path d="M21.4984 25.1669C21.4995 25.1116 21.5 25.056 21.5 25.0002L21.5 24.9987C21.4981 23.0632 21.0067 21.175 20.0906 19.502C21.8881 18.7964 23.1667 17.0426 23.1667 15.0002V11.5002H33.3333C34.3382 11.5002 35.1667 12.3286 35.1667 13.3335V18.9033C34.3267 18.6417 33.433 18.5002 32.5 18.5002C28.3381 18.5002 24.8668 21.3332 23.8431 25.1669H21.4984Z" stroke="black" stroke-opacity="0.8" stroke-width="3"/>
<path d="M32.5 21.6665C29.2833 21.6665 26.6667 24.2832 26.6667 27.4998C26.6667 30.7165 29.2833 33.3332 32.5 33.3332C35.7167 33.3332 38.3333 30.7165 38.3333 27.4998C38.3333 24.2832 35.7167 21.6665 32.5 21.6665ZM32.5 29.9998C31.1167 29.9998 30 28.8832 30 27.4998C30 26.1165 31.1167 24.9998 32.5 24.9998C33.8833 24.9998 35 26.1165 35 27.4998C35 28.8832 33.8833 29.9998 32.5 29.9998ZM6.66666 14.9998H15C15 13.1665 13.5 11.6665 11.6667 11.6665H6.66666C5.74999 11.6665 4.99999 12.4165 4.99999 13.3332C4.99999 14.2498 5.74999 14.9998 6.66666 14.9998ZM16.3833 23.0332L16.0833 22.2498L17.6333 21.6665C16.8637 19.9074 15.5012 18.4741 13.7833 17.6165L13.1167 19.0998L12.35 18.7498L13.0167 17.2498C12.1 16.8832 11.0667 16.6665 9.99999 16.6665C9.11666 16.6665 8.26666 16.8498 7.46666 17.0998L8.03332 18.6165L7.24999 18.9165L6.66666 17.3665C4.90754 18.1361 3.47427 19.4986 2.61666 21.2165L4.09999 21.8832L3.74999 22.6498L2.24999 21.9832C1.88332 22.8998 1.66666 23.9332 1.66666 24.9998C1.66666 25.8832 1.84999 26.7332 2.09999 27.5332L3.61666 26.9665L3.91666 27.7498L2.36666 28.3332C3.13624 30.0923 4.49873 31.5256 6.21666 32.3832L6.88332 30.8998L7.64999 31.2498L6.98332 32.7498C7.89999 33.1165 8.93332 33.3332 9.99999 33.3332C10.8833 33.3332 11.7333 33.1498 12.5333 32.8998L11.9667 31.3832L12.75 31.0832L13.3333 32.6332C15.0924 31.8636 16.5257 30.5011 17.3833 28.7832L15.9 28.1165L16.25 27.3498L17.75 28.0165C18.1167 27.0998 18.3333 26.0665 18.3333 24.9998C18.3333 24.1165 18.15 23.2665 17.9 22.4665L16.3833 23.0332ZM11.9167 29.6165C9.36666 30.6665 6.43332 29.4665 5.38332 26.9165C4.33332 24.3665 5.53332 21.4332 8.08332 20.3832C10.6333 19.3332 13.5667 20.5332 14.6167 23.0832C15.6833 25.6332 14.4667 28.5665 11.9167 29.6165Z" fill="black" fill-opacity="0.8"/>
<path d="M15.9164 23.212L16.0938 23.6751L16.5583 23.5015L17.5692 23.1238C17.7298 23.7359 17.8333 24.3623 17.8333 24.9998C17.8333 25.8144 17.6984 26.6094 17.4622 27.3415L16.4531 26.8929L16.0007 26.6919L15.7951 27.1422L15.4451 27.9089L15.2363 28.3664L15.695 28.5726L16.6873 29.0185C15.9563 30.2639 14.8894 31.2789 13.6093 31.9469L13.2179 30.9071L13.0408 30.4364L12.5712 30.6162L11.7878 30.9162L11.3247 31.0936L11.4983 31.5582L11.876 32.5691C11.2639 32.7296 10.6375 32.8332 9.99999 32.8332C9.18545 32.8332 8.39041 32.6982 7.65837 32.4621L8.1069 31.4529L8.30794 31.0006L7.85764 30.795L7.09097 30.445L6.63344 30.2361L6.42727 30.6949L5.98132 31.6871C4.73593 30.9561 3.72097 29.8893 3.05291 28.6091L4.09277 28.2178L4.56345 28.0407L4.38358 27.571L4.08359 26.7877L3.90622 26.3246L3.44166 26.4981L2.43076 26.8758C2.27022 26.2638 2.16666 25.6373 2.16666 24.9998C2.16666 24.1853 2.30159 23.3903 2.53773 22.6582L3.54692 23.1067L3.99926 23.3078L4.20483 22.8575L4.55483 22.0908L4.7637 21.6333L4.30496 21.4271L3.31273 20.9812C4.04372 19.7358 5.11054 18.7208 6.39069 18.0528L6.78203 19.0926L6.95917 19.5633L7.42881 19.3834L8.21215 19.0834L8.67527 18.9061L8.5017 18.4415L8.124 17.4306C8.73606 17.2701 9.36248 17.1665 9.99999 17.1665C10.8145 17.1665 11.6096 17.3014 12.3416 17.5376L11.8931 18.5468L11.692 18.9991L12.1423 19.2047L12.909 19.5547L13.3665 19.7636L13.5727 19.3048L14.0187 18.3126C15.2641 19.0436 16.279 20.1104 16.9471 21.3905L15.9072 21.7819L15.4365 21.959L15.6164 22.4287L15.9164 23.212ZM27.1667 27.4998C27.1667 24.5593 29.5595 22.1665 32.5 22.1665C35.4405 22.1665 37.8333 24.5593 37.8333 27.4998C37.8333 30.4404 35.4405 32.8332 32.5 32.8332C29.5595 32.8332 27.1667 30.4404 27.1667 27.4998ZM29.5 27.4998C29.5 29.1593 30.8405 30.4998 32.5 30.4998C34.1595 30.4998 35.5 29.1593 35.5 27.4998C35.5 25.8404 34.1595 24.4998 32.5 24.4998C30.8405 24.4998 29.5 25.8404 29.5 27.4998ZM11.6667 12.1665C13.0534 12.1665 14.2172 13.1785 14.4554 14.4998H6.66666C6.02613 14.4998 5.49999 13.9737 5.49999 13.3332C5.49999 12.6926 6.02613 12.1665 6.66666 12.1665H11.6667ZM4.92098 27.1069C6.07756 29.9157 9.30519 31.2325 12.107 30.0788C14.9127 28.9236 16.2513 25.6972 15.0785 22.8915C13.9214 20.0836 10.6944 18.7673 7.89295 19.9208C5.08412 21.0774 3.76728 24.305 4.92098 27.1069Z" stroke="black" stroke-opacity="0.8"/>
</svg>
