<svg width="24" height="24" viewBox="0 0 24 24" fill="none" xmlns="http://www.w3.org/2000/svg">
<g clip-path="url(#clip0_211_1156)">
<path d="M5.37376 19.7304L2.98876 18.6823C2.98876 18.6823 2.88376 19.256 2.61751 19.5635C2.31751 19.9085 1.80376 20.0941 1.80376 20.0941C1.80376 20.0941 2.08313 20.4166 2.10188 20.4935C2.12063 20.5704 2.75251 22.7135 2.75251 22.7135C2.75251 22.7135 3.24938 23.0379 3.40313 23.1541C3.55688 23.2704 3.93938 23.3641 4.13063 23.0585C4.32188 22.7529 4.63501 22.3179 4.87688 22.0254C5.15626 21.686 5.44876 21.4666 5.44876 21.4666C5.44876 21.4666 6.54188 21.9298 8.05313 21.9298C9.56438 21.9298 11.2669 21.2791 13.2 19.826C15.1331 18.3729 17.3194 16.2148 17.8931 15.7554C18.4669 15.296 19.6669 14.4298 20.2613 14.2779C20.8556 14.126 21.3525 14.2404 21.3525 14.6229C21.3525 15.0054 21.1031 15.236 21.2944 15.3691C21.4856 15.5023 22.1175 14.9866 22.1175 14.9285C22.1175 14.8704 22.0594 13.1116 22.0594 13.1116L20.3925 12.0298C20.3925 12.0298 20.8481 11.4541 21.2363 10.9685C21.54 10.5879 22.02 10.0891 22.02 10.0891C22.02 10.0891 22.0388 9.41976 21.9244 9.47601C21.81 9.53226 17.0456 11.1973 16.0688 12.0391C15.0919 12.881 11.19 16.631 11.1338 16.6498C11.0775 16.6685 5.37376 19.7304 5.37376 19.7304Z" fill="#307B32"/>
<path d="M1.80563 20.0889C1.56188 20.2033 0.836251 20.4545 0.875626 20.9702C0.913126 21.4858 1.41938 21.827 1.83563 22.1045C2.25 22.382 2.75438 22.7177 2.75438 22.7177C2.75438 22.7177 3.55875 22.3745 3.59625 21.5514C3.615 21.1314 3.17625 20.8427 2.8875 20.5764C2.59875 20.3102 2.22938 19.8845 2.22938 19.8845C2.22938 19.8845 2.06438 19.9689 1.80563 20.0889ZM7.71563 1.89579C7.7175 1.98954 8.72063 1.85641 9.17625 2.30266C9.62063 2.73766 9.76875 3.57766 9.04688 4.65016C8.325 5.72266 6.5325 7.86766 5.66438 8.95891C4.79625 10.0502 2.7975 12.4145 2.44688 14.7958C2.07938 17.2914 2.52375 19.1195 3.825 20.2108C5.12625 21.302 6.90563 22.0277 9.85125 20.8239C12.2156 19.8564 13.6013 17.9739 15.8212 16.1739C18.0413 14.3739 19.4381 13.4758 20.7581 13.4195C22.0781 13.3614 22.0969 14.3758 21.9244 14.7395C21.7519 15.1033 21.3581 15.4239 21.5044 15.3714C21.6844 15.3058 22.2881 15.122 22.5956 14.3008C22.9013 13.4777 22.5 12.4839 21.6206 12.1014C20.7412 11.7189 18.8456 12.0827 17.3738 12.8664C15.9 13.6502 14.3513 14.7995 14.1394 14.9702C13.9294 15.1427 13.5075 15.0077 13.8713 14.5877C14.235 14.1677 16.1681 12.3677 18.3094 11.4302C20.4506 10.4927 22.0219 10.0914 22.0219 10.0914C22.0219 10.0914 22.6725 9.45954 22.8638 9.28704C23.055 9.11454 23.3419 8.98141 23.3044 8.79016C23.2669 8.59891 22.3913 8.33266 21.2081 9.03016C21.2044 9.03204 12.7425 9.69016 12.7425 9.53641C12.7425 9.38266 13.8563 2.11141 13.8375 1.84329C13.8188 1.57516 13.7156 1.38204 13.5563 1.48329C13.4119 1.57516 12.8663 2.39266 12.6281 2.70391C12.4219 2.97204 12.1106 3.33579 12.0919 3.27766C12.0731 3.21954 11.9438 1.50766 10.9613 0.980787C9.315 0.101412 7.70438 1.50954 7.71563 1.89579Z" fill="#649726"/>
<path d="M8.76 13.3406C8.14875 14.1244 3.57562 15.7125 3.57562 15.7125C3.57562 15.7125 3.81187 14.1994 4.64625 12.5175C5.96812 9.85501 10.1362 6.34313 11.1506 4.19438C11.7525 2.91938 11.5144 1.93688 11.0175 1.38188C10.5206 0.826881 10.0312 0.699381 10.0312 0.699381C10.0312 0.699381 11.4581 0.656256 11.9944 1.97626C12.5306 3.29626 12.0712 4.23376 12.0712 4.23376C12.0712 4.23376 12.7031 3.48751 13.1231 2.87626C13.5431 2.26313 13.8112 1.68938 13.8112 1.68938C13.8112 1.68938 14.0981 2.34001 13.9069 3.31501C13.7156 4.29001 13.4475 4.82626 13.4475 4.82626L8.76 13.3406Z" fill="#307B32"/>
<path d="M18.3075 1.5168C18.3075 1.5168 18.675 0.88868 19.3594 0.808055C20.1825 0.71243 20.6419 1.19055 20.6419 1.19055C20.6419 1.19055 21.345 0.444305 22.2375 1.01055C23.0606 1.53368 22.5975 2.45993 22.5975 2.45993C22.5975 2.45993 23.2837 2.62305 23.2669 3.4968C23.25 4.3293 22.7287 4.65368 22.7287 4.65368L19.1512 9.51368L16.7025 11.2931L15.3637 12.1537L12.8006 13.9331L7.13812 18.1424C7.13812 18.1424 5.08687 19.3312 4.0575 18.2006C3.48375 17.5687 3.44437 16.8224 3.48375 16.3068C3.54 15.5437 3.69375 15.1724 4.03875 14.7768C4.48875 14.2612 4.995 14.1262 4.995 14.1262C4.995 14.1262 4.81125 13.3424 5.33625 12.5549C5.8575 11.7749 6.66 11.8499 6.66 11.8499C6.66 11.8499 6.63187 10.7737 7.245 10.2187C7.86937 9.65243 8.21062 9.91681 8.24812 9.82118C8.28562 9.72556 8.15625 9.07118 8.9025 8.40743C9.43875 7.93118 10.1606 8.06056 10.1606 8.06056C10.1606 8.06056 10.0219 7.16243 10.7269 6.47243C11.4675 5.74681 12.1687 6.16681 12.1687 6.16681C12.1687 6.16681 12.0356 5.27618 12.5231 4.73056C13.1044 4.0818 13.6987 4.12306 13.6987 4.12306C13.6987 4.12306 13.7962 3.32055 14.4319 2.7693C14.9137 2.3493 15.7294 2.41868 15.7856 2.3418C15.8419 2.26493 16.0987 1.5393 16.8637 1.28993C17.6756 1.02368 18.3075 1.5168 18.3075 1.5168Z" fill="#FFC01E"/>
<path d="M21.3188 5.14703C21.3188 5.14703 21.2194 5.98703 20.9325 6.36016C20.4131 7.03703 19.9013 6.91328 19.9013 6.91328C19.9013 6.91328 20.1225 7.77016 19.6256 8.37578C19.0706 9.05078 18.2719 8.96453 18.2719 8.96453C18.2719 8.96453 18.315 9.69391 17.91 10.1083C17.3025 10.7308 16.815 10.607 16.815 10.607C16.815 10.607 16.815 11.0083 16.5 11.3927C16.4306 11.477 18.5306 10.1758 19.1981 9.85703C19.8656 9.53641 21.2119 9.03016 21.2119 9.03016C21.2119 9.03016 21.9713 8.56328 22.1588 7.95016C22.3463 7.33703 22.2263 6.81578 22.2788 6.63016C22.3313 6.44453 22.6781 6.21578 22.8394 5.68328C23.0006 5.15078 22.8056 4.58828 22.8056 4.58828C22.8056 4.58828 22.6556 4.84516 22.2638 5.01391C21.7706 5.22391 21.3188 5.14703 21.3188 5.14703ZM19.2394 2.16016C19.2394 2.16016 19.0931 2.41328 18.9994 2.57453C18.9056 2.73391 18.7988 2.94766 18.7988 2.94766C18.7988 2.94766 18.5588 2.93453 18.3581 2.92141C18.1575 2.90828 17.8219 2.93266 17.8219 2.93266C17.8219 2.93266 17.9813 2.71516 18.0881 2.58203C18.195 2.44891 18.24 2.21453 18.24 2.21453C18.24 2.21453 18.4275 2.24078 18.6938 2.22766C18.9581 2.21266 19.2394 2.16016 19.2394 2.16016ZM5.83501 15.8045C5.83501 15.8045 5.87438 15.3114 5.88751 15.0977C5.90063 14.8839 5.84813 14.5108 5.84813 14.5108C5.84813 14.5108 6.75563 14.4039 7.12876 13.7645C7.50188 13.1252 7.43626 12.6583 7.43626 12.6583C7.43626 12.6583 8.38313 12.8177 8.90251 11.8839C9.42188 10.9502 9.07501 10.4439 9.15563 10.4833C9.23626 10.5227 10.1569 10.4027 10.6369 9.69578C11.1169 8.98891 10.9969 8.61578 10.9969 8.61578C10.9969 8.61578 11.7975 8.56328 12.1838 7.97641C12.57 7.38953 12.4763 6.80266 12.4763 6.80266C12.4763 6.80266 13.2825 6.77266 13.7081 6.29266C14.1356 5.81266 14.205 5.03453 14.205 5.03453C14.205 5.03453 14.6456 5.13016 15.3525 4.73078C16.0594 4.33141 16.2488 3.53453 16.2488 3.53453C16.2488 3.53453 16.4944 3.58328 16.7213 3.54953C17.0006 3.50828 17.1581 3.41266 17.1581 3.41266C17.1581 3.41266 17.0119 3.54953 16.9088 3.94516C16.8338 4.23203 16.7944 4.50953 16.7944 4.50953C16.7944 4.50953 16.1663 4.23391 15.5269 5.07016C15.1388 5.58016 15.1575 6.18766 15.1575 6.18766C15.1575 6.18766 14.5463 6.07891 13.9969 6.74828C13.4906 7.36328 13.5825 7.86953 13.5825 7.86953C13.5825 7.86953 12.8756 7.80203 12.3694 8.46953C11.8163 9.19703 11.9831 9.93578 11.9831 9.93578C11.9831 9.93578 11.1038 9.84203 10.6763 10.4027C10.2488 10.9633 10.3163 11.7095 10.3163 11.7095C10.3163 11.7095 9.68626 11.6364 9.18188 12.2439C8.72813 12.7914 8.79563 13.1777 8.79563 13.1777C8.79563 13.1777 7.99501 13.1645 7.48876 13.832C6.98251 14.4995 6.98251 15.272 6.98251 15.272C6.98251 15.272 6.62251 15.2983 6.34313 15.4314C6.06188 15.5645 5.83501 15.8045 5.83501 15.8045ZM8.26126 16.5508C8.26126 16.5508 8.94188 16.7233 9.42188 15.9508C9.90188 15.1764 9.87563 14.4977 9.87563 14.4977C9.87563 14.4977 10.635 14.5239 11.0888 13.937C11.5425 13.3502 11.5669 12.5945 11.5669 12.5945C11.5669 12.5945 12.2719 12.6227 12.7425 11.9102C13.125 11.3327 13.1288 10.7495 13.1288 10.7495C13.1288 10.7495 13.7025 10.6427 14.1563 10.0952C14.61 9.54766 14.5163 8.78828 14.5163 8.78828C14.5163 8.78828 15.3038 8.84078 15.7575 8.12078C16.2113 7.40078 16.0913 6.96016 16.0913 6.96016C16.0913 6.96016 16.6856 7.04078 17.2069 6.38641C17.7263 5.73203 17.505 5.17141 17.505 5.17141C17.505 5.17141 18.3056 5.34391 18.7988 4.78516C19.2919 4.22453 19.3406 3.54953 19.3856 3.55891C19.6481 3.60766 20.3419 3.30016 20.3419 3.30016C20.3419 3.30016 20.2744 3.88703 20.3025 4.24891C20.3063 4.29016 19.5581 4.22641 19.0781 5.02703C18.5981 5.82766 18.7856 6.36016 18.7856 6.36016C18.7856 6.36016 18.0863 6.42578 17.7525 7.02578C17.4188 7.62578 17.5331 8.29328 17.5331 8.29328C17.5331 8.29328 16.8994 8.06641 16.3856 8.74703C16.05 9.19141 16.0519 9.69391 16.0519 9.69391C16.0519 9.69391 15.3413 9.41266 14.8013 10.3127C14.4075 10.9689 14.5838 11.7077 14.5838 11.7077C14.5838 11.7077 13.9031 11.6683 13.3575 12.2945C12.81 12.9208 12.7988 13.9314 12.7988 13.9314C12.7988 13.9314 11.5031 15.0302 10.3425 15.9377C9.39376 16.6783 7.04251 18.2139 7.13438 18.1427C7.51688 17.8408 7.71563 17.6477 7.94251 17.327C8.16938 17.0083 8.26126 16.5508 8.26126 16.5508Z" fill="#F99628"/>
<path d="M17.145 1.73238C16.8225 1.59738 16.4512 1.71925 16.3444 2.18613C16.2712 2.50488 16.3444 2.773 16.6237 2.893C16.9369 3.02613 17.1806 2.76175 17.2912 2.533C17.4506 2.19925 17.3981 1.83925 17.145 1.73238ZM15.33 2.93425C15.105 2.75613 14.6494 2.86675 14.4225 3.36175C14.1956 3.85675 14.3006 4.31425 14.715 4.33488C15.2644 4.36113 15.8381 3.33363 15.33 2.93425ZM13.3706 4.708C13.1437 4.5655 12.7106 4.65925 12.5044 5.10738C12.345 5.45425 12.4162 5.84238 12.6769 5.9605C12.9431 6.0805 13.2937 5.9005 13.4775 5.533C13.6369 5.21425 13.6894 4.90675 13.3706 4.708ZM11.7956 6.48175C11.4581 6.25113 11.0081 6.42925 10.7287 6.868C10.4494 7.30863 10.4756 7.81488 10.7419 7.97425C11.0081 8.13363 11.5125 8.02488 11.8087 7.53363C12.0769 7.09488 12.09 6.6805 11.7956 6.48175ZM9.78187 8.60238C9.54187 8.41113 9.08812 8.54988 8.88749 8.923C8.68687 9.29613 8.79937 9.56988 9.00749 9.72363C9.26062 9.91113 9.56812 9.81738 9.82124 9.48363C10.0744 9.14988 9.98249 8.76175 9.78187 8.60238ZM8.32687 10.4005C8.12437 10.2168 7.67249 10.2674 7.43249 10.6274C7.19249 10.9874 7.27312 11.3474 7.52624 11.5068C7.77937 11.6661 8.13937 11.4674 8.32687 11.2405C8.51249 11.0136 8.60624 10.6536 8.32687 10.4005ZM6.31499 12.5474C6.04124 12.3618 5.66062 12.5736 5.52749 12.7874C5.39437 13.0011 5.38124 13.3068 5.64749 13.5074C5.91374 13.708 6.28687 13.5599 6.42187 13.3611C6.55499 13.1605 6.68812 12.8005 6.31499 12.5474ZM7.60874 14.458C7.43999 14.7805 7.47562 15.0843 7.68937 15.2718C7.90312 15.4593 8.27624 15.3524 8.50312 14.9924C8.61937 14.8068 8.66249 14.4055 8.38312 14.218C8.10187 14.0305 7.74187 14.203 7.60874 14.458ZM9.58124 12.8305C9.37124 13.1024 9.39374 13.4305 9.58124 13.6049C9.76874 13.7774 10.2356 13.6724 10.4081 13.3911C10.5544 13.1511 10.5281 12.8718 10.3144 12.6843C10.1456 12.5343 9.80812 12.5361 9.58124 12.8305ZM11.1169 11.4693C11.3644 11.6586 11.7037 11.5368 11.8631 11.3755C12.0225 11.2143 12.1706 10.8411 11.9569 10.6011C11.7431 10.3611 11.3437 10.4418 11.1169 10.6818C10.89 10.9236 10.89 11.2968 11.1169 11.4693ZM12.6225 8.62863C12.4087 8.96613 12.315 9.53613 12.69 9.73488C13.0894 9.94863 13.5169 9.508 13.7044 9.2005C13.8919 8.893 13.8919 8.45425 13.5844 8.27988C13.2412 8.08863 12.8756 8.22925 12.6225 8.62863ZM14.1431 7.08175C13.905 7.45863 13.7831 7.93488 14.0906 8.17488C14.3531 8.38113 14.8106 8.14863 15.0637 7.78863C15.3169 7.42863 15.3712 7.02925 15.09 6.77425C14.8106 6.52113 14.37 6.72175 14.1431 7.08175ZM15.7181 5.28175C15.4931 5.54238 15.4256 5.92113 15.6656 6.13488C15.9056 6.34863 16.2262 6.32238 16.4794 6.00175C16.7325 5.68113 16.7194 5.32113 16.44 5.1355C16.1906 4.9705 15.8906 5.08113 15.7181 5.28175Z" fill="#FBE36A"/>
</g>
<defs>
<clipPath id="clip0_211_1156">
<rect width="24" height="24" fill="white"/>
</clipPath>
</defs>
</svg>
