<svg width="40" height="40" viewBox="0 0 40 40" fill="none" xmlns="http://www.w3.org/2000/svg">
<path d="M31.975 14.6873L31.4375 15.2248C30.5194 16.1436 30.0026 17.3885 30 18.6873V19.9998C30 21.0373 30.8375 21.8748 31.875 21.8748C32.9125 21.8748 33.75 21.0373 33.75 19.9998V15.4248C33.75 14.4998 32.625 14.0373 31.975 14.6873ZM17.625 20.3373L21.55 23.2873C22.1875 23.7623 21.85 24.7623 21.0625 24.7623H18.0625C17.7442 24.7623 17.439 24.6359 17.214 24.4109C16.9889 24.1858 16.8625 23.8806 16.8625 23.5623V20.7248C16.8625 20.3248 17.3125 20.0998 17.625 20.3373ZM29.4875 23.5248C29.4875 23.8531 29.3571 24.1678 29.125 24.3999C28.893 24.632 28.5782 24.7623 28.25 24.7623C27.9218 24.7623 27.607 24.632 27.3749 24.3999C27.1429 24.1678 27.0125 23.8531 27.0125 23.5248C27.0125 23.1966 27.1429 22.8819 27.3749 22.6498C27.607 22.4177 27.9218 22.2873 28.25 22.2873C28.5782 22.2873 28.893 22.4177 29.125 22.6498C29.3571 22.8819 29.4875 23.1966 29.4875 23.5248Z" fill="black"/>
<path d="M10.145 3.9875C10.0343 3.76435 9.9824 3.51661 9.99428 3.26778C10.0062 3.01895 10.0814 2.77728 10.2129 2.56568C10.3443 2.35409 10.5277 2.17958 10.7455 2.0587C10.9633 1.93783 11.2084 1.8746 11.4575 1.875C11.9913 1.875 12.5175 2.17125 12.7675 2.6875L13.5987 4.3375H14.125V4.325H19.9875V5.575C19.9875 7.225 19.0063 8.65375 17.5975 9.3075C18.522 10.1567 19.7322 10.627 20.9875 10.625H31.6375C35.5675 10.625 38.75 13.8125 38.75 17.75V33.125C38.0891 33.125 37.4551 32.8633 36.9866 32.3972C36.5182 31.9311 36.2533 31.2984 36.25 30.6375V36.5625C36.25 37.4275 35.5525 38.125 34.6875 38.125H32.8125C31.9475 38.125 31.25 37.4275 31.25 36.5625V32.8525L30.2875 32.6138C29.9763 32.5369 29.6726 32.4323 29.38 32.3013L27.8263 37.7363C27.8053 37.8095 27.761 37.874 27.7001 37.9198C27.6392 37.9656 27.565 37.9902 27.4887 37.99H25.4025C25.3475 37.9909 25.293 37.9788 25.2436 37.9546C25.1943 37.9303 25.1513 37.8947 25.1184 37.8507C25.0854 37.8066 25.0634 37.7554 25.0541 37.7011C25.0448 37.6469 25.0486 37.5913 25.065 37.5388L26.8625 31.25H26.1C24.975 31.25 23.91 30.9475 23.11 30.3113C22.7805 30.0528 22.5021 29.7353 22.2887 29.375H21.2613L22.34 33.1325C22.4525 33.5425 22.4525 33.9663 22.34 34.3613L21.3525 37.7363C21.3315 37.8097 21.287 37.8743 21.2258 37.9201C21.1647 37.966 21.0902 37.9905 21.0138 37.99H18.9237C18.8687 37.9907 18.8142 37.9783 18.7648 37.9539C18.7154 37.9296 18.6725 37.8939 18.6395 37.8498C18.6065 37.8057 18.5843 37.7544 18.5749 37.7002C18.5654 37.6459 18.5689 37.5902 18.585 37.5375L19.6575 33.8813C19.6858 33.8038 19.6858 33.7188 19.6575 33.6413L18.735 30.4225C18.7104 31.1048 18.503 31.768 18.1344 32.3428C17.7659 32.9176 17.2498 33.3829 16.64 33.69L16.2375 33.8938V36.5625C16.2375 37.4275 15.54 38.125 14.675 38.125H12.8C11.935 38.125 11.2375 37.4275 11.2375 36.5625V28.9825C10.583 28.6844 10.0107 28.2317 9.56998 27.6634C9.12925 27.0951 8.83326 26.4281 8.7075 25.72L8.70625 25.715L7.85625 20.8438L7.13125 16.85H5.725C4.53816 16.85 3.39992 16.3785 2.5607 15.5393C1.72147 14.7001 1.25 13.5618 1.25 12.375C1.25 11.2775 1.8 10.275 2.69625 9.68375L9.19 5.35C9.59725 5.07527 10.0374 4.8527 10.5 4.6875L10.145 3.9875ZM11.2875 16.85H9.6725L9.90375 18.125H11.1C12.025 18.125 12.9125 18.5 13.5625 19.1625C14.3375 19.95 14.35 21.225 13.575 22.025L12.825 22.8125C12.61 23.0385 12.4893 23.338 12.4875 23.65V24.175C12.4875 24.9713 12.225 25.7313 11.7412 26.35C12.0062 26.6025 12.3425 26.7775 12.7137 26.8463L13.7375 27.0338V32.3563L15.51 31.46C15.9625 31.23 16.2375 30.7788 16.2375 30.3V26.875H25.48C25.9425 26.875 26.3675 26.7163 26.7337 26.44C26.8799 26.3296 27.0485 26.2526 27.2277 26.2146C27.4068 26.1765 27.5922 26.1783 27.7706 26.2198C27.949 26.2613 28.1161 26.3415 28.26 26.4547C28.404 26.5679 28.5214 26.7114 28.6037 26.875H28.645L28.6588 27C28.7109 27.14 28.7376 27.2881 28.7375 27.4375C28.7375 28.74 29.6225 29.875 30.8875 30.1875H30.8888L33.75 30.8975V24.0638L34.3125 23.6938C34.6792 23.4513 35.0083 23.1579 35.3 22.8138L36.25 21.6988V17.75C36.25 15.1875 34.1825 13.125 31.6375 13.125H30.0262L29.6625 13.55C29.075 14.2375 28.75 15.1125 28.75 16.025V18.5C28.75 20.3625 27.2375 21.875 25.35 21.8875C24.7918 21.8885 24.242 21.7511 23.75 21.4875L19.675 19.3125C19.0139 18.9562 18.4615 18.4276 18.0764 17.7828C17.6913 17.138 17.4878 16.401 17.4875 15.65V12.2613C17.1825 12.1008 16.8889 11.9196 16.6087 11.7188C16.5586 13.0965 15.976 14.4012 14.9836 15.3582C13.9911 16.3152 12.6662 16.8499 11.2875 16.85ZM25.475 29.375H23.9425C24.4675 29.77 25.2175 30 26.1 30H26.8925C26.7585 29.7582 26.6448 29.5056 26.5525 29.245C26.1999 29.3316 25.8381 29.3753 25.475 29.375ZM12.5125 6.8375C11.82 6.8375 11.1525 7.04 10.5875 7.4225L10.5813 7.4275L6.50625 10.1463C6.885 10.555 7.15 11.145 7.15 11.875H7.325C7.3811 11.4179 7.54573 10.9808 7.80515 10.6003C8.06457 10.2197 8.41125 9.90677 8.81625 9.6875L13.2725 6.8375H12.5125ZM5.125 13.65C4.775 13.65 4.5 13.375 4.5 13.025V12.325C4.5 11.975 4.775 11.7 5.125 11.7C5.475 11.7 5.75 11.975 5.75 12.325V13.0125C5.75 13.3625 5.475 13.65 5.125 13.65ZM8.75 11.7875C8.75 12.125 9.025 12.4125 9.375 12.4125C9.725 12.4125 10 12.125 10 11.7875V10.9375C10 10.5875 9.725 10.3125 9.375 10.3125C9.025 10.3125 8.75 10.5875 8.75 10.9375V11.7875Z" fill="black"/>
</svg>
