<svg width="40" height="40" viewBox="0 0 40 40" fill="none" xmlns="http://www.w3.org/2000/svg">
<path fill-rule="evenodd" clip-rule="evenodd" d="M8.01168 13.8581C9.30834 12.5181 10.605 12.0714 12.3333 12.9648C13.89 13.7689 14.7458 13.8489 15.5317 13.8573C16.3508 13.8489 17.2417 13.7689 18.8633 12.9648C20.6633 12.0714 22.0133 12.5181 23.3642 13.8581C24.9558 15.4381 25.4475 17.0831 25.615 18.3256C25.6345 18.4256 25.652 18.5256 25.6675 18.6256C25.1302 18.7824 24.6494 19.0904 24.2823 19.513C23.9153 19.9355 23.6775 20.4547 23.5974 21.0087C23.5173 21.5626 23.5982 22.1279 23.8305 22.6371C24.0628 23.1463 24.4367 23.578 24.9075 23.8806L24.8417 24.0498C24.5116 23.8161 24.1366 23.6537 23.7405 23.5727C23.3443 23.4917 22.9356 23.494 22.5404 23.5795C22.1451 23.6649 21.772 23.8315 21.4446 24.0689C21.1172 24.3062 20.8427 24.609 20.6386 24.9581C20.4345 25.3072 20.3052 25.6948 20.2589 26.0966C20.2127 26.4983 20.2504 26.9052 20.3698 27.2915C20.4892 27.6779 20.6877 28.0352 20.9525 28.3407C21.2174 28.6463 21.5429 28.8934 21.9083 29.0664C21.8295 29.1642 21.7525 29.2562 21.6775 29.3423C20.9817 30.0664 20.19 30.5306 19.3317 30.3889C16.6317 29.9414 16.1817 29.9414 15.7317 29.9414H15.34C14.9083 29.9414 14.4758 29.9414 11.8833 30.3889C9.80834 30.7456 8.14168 27.2614 7.31501 25.4756C6.01501 22.6731 5.75584 19.8089 5.85084 18.3256C6.01168 17.0823 6.48418 15.4381 8.01168 13.8589" fill="black"/>
<path fill-rule="evenodd" clip-rule="evenodd" d="M31.5375 15.075C32.4736 15.4108 33.2379 16.1048 33.6624 17.0042C34.0868 17.9036 34.1366 18.9347 33.8008 19.8708C33.7736 19.9447 33.7383 20.0122 33.695 20.0733C34.3753 20.6582 34.8233 21.4675 34.9579 22.3544C35.0924 23.2414 34.9045 24.1472 34.4283 24.9075C34.1946 25.2805 33.897 25.6094 33.5492 25.8791C33.5608 26.0014 33.5667 26.125 33.5667 26.25C33.567 26.8726 33.4124 27.4854 33.1167 28.0333C33.5811 28.2844 33.9873 28.6306 34.3086 29.0495C34.63 29.4683 34.8593 29.9503 34.9815 30.4639C35.1038 30.9775 35.1162 31.5111 35.018 32.0298C34.9197 32.5485 34.7131 33.0407 34.4116 33.474C34.1101 33.9074 33.7204 34.2722 33.2682 34.5445C32.8159 34.8169 32.3113 34.9907 31.7872 35.0546C31.2632 35.1185 30.7315 35.071 30.2271 34.9153C29.7227 34.7595 29.2568 34.499 28.86 34.1508C28.2263 34.6704 27.4398 34.9682 26.6208 34.9984C25.8018 35.0287 24.9955 34.7899 24.3251 34.3185C23.6548 33.847 23.1573 33.169 22.9088 32.3881C22.6603 31.6071 22.6745 30.7663 22.9492 29.9941C21.9909 29.9426 21.0888 29.5256 20.4287 28.829C19.7686 28.1324 19.4007 27.2092 19.4007 26.2496C19.4007 25.2899 19.7686 24.3667 20.4287 23.6701C21.0888 22.9735 21.9909 22.5565 22.9492 22.505C22.742 21.9219 22.6823 21.2966 22.7755 20.6848C22.8687 20.0731 23.1118 19.4939 23.4832 18.999C23.8546 18.504 24.3426 18.1086 24.9039 17.8481C25.4652 17.5876 26.0822 17.47 26.7 17.5058C26.7078 17.4497 26.7217 17.3936 26.7417 17.3375C27.0777 16.4016 27.7717 15.6374 28.6711 15.2131C29.5704 14.7888 30.6015 14.7392 31.5375 15.075ZM29.885 32.8308C30.1087 33.0466 30.3778 33.2096 30.6726 33.3079C30.9675 33.4062 31.2805 33.4373 31.589 33.3989C31.8974 33.3605 32.1933 33.2536 32.455 33.086C32.7168 32.9184 32.9377 32.6944 33.1016 32.4303C33.2655 32.1663 33.3683 31.8689 33.4023 31.56C33.4364 31.251 33.4009 30.9384 33.2985 30.645C33.1961 30.3515 33.0293 30.0847 32.8104 29.8641C32.5915 29.6435 32.326 29.4747 32.0333 29.37C32.0049 29.3598 31.9771 29.3481 31.95 29.335C31.3958 29.7183 30.7333 29.9566 30.0183 29.995C30.1575 30.3866 30.2333 30.81 30.2333 31.25C30.2333 31.815 30.1083 32.35 29.885 32.8308ZM30.0183 22.5058C30.5975 22.5368 31.1616 22.7017 31.6662 22.9876C32.1709 23.2735 32.6023 23.6725 32.9267 24.1533C33.1245 23.8851 33.2551 23.5733 33.3075 23.2441C33.369 22.8576 33.3203 22.4616 33.1671 22.1014C33.0139 21.7413 32.7623 21.4316 32.4412 21.2078C32.1201 20.984 31.7424 20.8552 31.3515 20.8361C30.9606 20.8171 30.5722 20.9085 30.2308 21.1C30.2502 21.5776 30.1781 22.0553 30.0183 22.5058ZM29.7825 19.465C30.5581 19.1355 31.422 19.0767 32.235 19.2983C32.4185 18.7783 32.3884 18.2067 32.1512 17.7088C31.914 17.211 31.4891 16.8275 30.9696 16.6424C30.4501 16.4573 29.8784 16.4858 29.3799 16.7215C28.8813 16.9572 28.4966 17.381 28.31 17.9L28.2858 17.96C28.9192 18.307 29.439 18.8296 29.7825 19.465ZM26.4833 19.1666C25.9308 19.1666 25.4009 19.3861 25.0102 19.7768C24.6195 20.1675 24.4 20.6974 24.4 21.25C24.4 21.8025 24.6195 22.3324 25.0102 22.7231C25.4009 23.1138 25.9308 23.3333 26.4833 23.3333C27.0359 23.3333 27.5658 23.1138 27.9565 22.7231C28.3472 22.3324 28.5667 21.8025 28.5667 21.25C28.5667 20.6974 28.3472 20.1675 27.9565 19.7768C27.5658 19.3861 27.0359 19.1666 26.4833 19.1666ZM23.15 24.1666C22.5975 24.1666 22.0676 24.3861 21.6769 24.7768C21.2862 25.1675 21.0667 25.6974 21.0667 26.25C21.0667 26.8025 21.2862 27.3324 21.6769 27.7231C22.0676 28.1138 22.5975 28.3333 23.15 28.3333C23.7025 28.3333 24.2324 28.1138 24.6231 27.7231C25.0138 27.3324 25.2333 26.8025 25.2333 26.25C25.2333 25.6974 25.0138 25.1675 24.6231 24.7768C24.2324 24.3861 23.7025 24.1666 23.15 24.1666ZM27.7333 26.25C27.7333 25.6974 27.9528 25.1675 28.3435 24.7768C28.7342 24.3861 29.2641 24.1666 29.8167 24.1666C30.3692 24.1666 30.8991 24.3861 31.2898 24.7768C31.6805 25.1675 31.9 25.6974 31.9 26.25C31.9 26.8025 31.6805 27.3324 31.2898 27.7231C30.8991 28.1138 30.3692 28.3333 29.8167 28.3333C29.2641 28.3333 28.7342 28.1138 28.3435 27.7231C27.9528 27.3324 27.7333 26.8025 27.7333 26.25ZM26.4833 29.1666C25.9308 29.1666 25.4009 29.3861 25.0102 29.7768C24.6195 30.1675 24.4 30.6974 24.4 31.25C24.4 31.8025 24.6195 32.3324 25.0102 32.7231C25.4009 33.1138 25.9308 33.3333 26.4833 33.3333C27.0359 33.3333 27.5658 33.1138 27.9565 32.7231C28.3472 32.3324 28.5667 31.8025 28.5667 31.25C28.5667 30.6974 28.3472 30.1675 27.9565 29.7768C27.5658 29.3861 27.0359 29.1666 26.4833 29.1666ZM6.30417 6.66748H7.24834C9.615 6.66748 11.8433 7.73165 13.47 9.14415C13.9987 9.60164 14.478 10.1133 14.9 10.6708V8.80498C14.9 8.58397 14.9878 8.372 15.1441 8.21572C15.3004 8.05944 15.5123 7.97165 15.7333 7.97165C15.9543 7.97165 16.1663 8.05944 16.3226 8.21572C16.4789 8.372 16.5667 8.58397 16.5667 8.80498V14.305C16.5667 14.4309 16.5383 14.5551 16.4834 14.6684C16.4286 14.7817 16.3488 14.8811 16.25 14.9591V15H16.1933C16.0568 15.0909 15.8963 15.1393 15.7322 15.139C15.5682 15.1387 15.4079 15.0897 15.2717 14.9983C13.2383 14.9616 11.195 14.1708 9.58667 12.9016C7.94 11.6016 6.69 9.75165 6.42167 7.60331L6.30417 6.66748ZM14.4258 13.2591C14.1308 12.35 13.4292 11.3158 12.3775 10.4025C11.2442 9.41915 9.81084 8.66998 8.3075 8.42248C8.71 9.64081 9.535 10.7383 10.6192 11.5941C11.73 12.47 13.075 13.06 14.4258 13.2591Z" fill="black"/>
<path fill-rule="evenodd" clip-rule="evenodd" d="M31.64 7.62012L31.7917 8.55178C32.1708 10.8876 31.4775 13.2585 30.3433 15.0901C29.2283 16.8918 27.565 18.3568 25.8308 18.6384L25.0083 18.7718L24.875 17.9501C24.5417 15.896 24.9933 13.6918 26.0117 11.8584C27.03 10.0251 28.6575 8.49512 30.7342 7.88595L31.64 7.62012ZM30.2283 9.87845C29.0908 10.4718 28.1392 11.4618 27.4683 12.6684C26.7817 13.9051 26.4133 15.3268 26.4342 16.6934C27.2842 16.2559 28.1925 15.3976 28.9258 14.2126C29.7158 12.9376 30.225 11.4018 30.2292 9.87928" fill="black"/>
</svg>
