<svg width="24" height="24" viewBox="0 0 24 24" fill="none" xmlns="http://www.w3.org/2000/svg">
<path d="M12.1268 5.62914V3.31689H9.84151C9.73758 3.31748 9.6348 3.33863 9.53908 3.37912C9.44337 3.41962 9.35662 3.47866 9.28383 3.55284C9.21104 3.62703 9.15366 3.71488 9.11499 3.81135C9.07631 3.90781 9.05712 4.01098 9.05851 4.11489V5.13789C9.05851 6.87039 8.50501 8.50839 7.19326 9.60639L4.36126 11.9869C0.927756 14.8796 2.93626 20.5549 7.38751 20.5549H11.457C11.457 20.5549 12.1268 10.0226 12.1268 5.62914Z" fill="#B8897D"/>
<path d="M12.1268 5.62914V3.31689H9.84151C9.73758 3.31748 9.6348 3.33863 9.53908 3.37912C9.44337 3.41962 9.35662 3.47866 9.28383 3.55284C9.21104 3.62703 9.15366 3.71488 9.11499 3.81135C9.07631 3.90781 9.05712 4.01098 9.05851 4.11489V5.13789C9.05851 6.87039 8.50501 8.50839 7.19326 9.60639L4.36126 11.9869C0.927756 14.8796 2.93626 20.5549 7.38751 20.5549H11.457C11.457 20.5549 12.1268 10.0226 12.1268 5.62914Z" fill="url(#paint0_linear_211_1172)"/>
<path d="M12.1268 5.62914V3.31689H9.84151C9.73758 3.31748 9.6348 3.33863 9.53908 3.37912C9.44337 3.41962 9.35662 3.47866 9.28383 3.55284C9.21104 3.62703 9.15366 3.71488 9.11499 3.81135C9.07631 3.90781 9.05712 4.01098 9.05851 4.11489V5.13789C9.05851 6.87039 8.50501 8.50839 7.19326 9.60639L4.36126 11.9869C0.927756 14.8796 2.93626 20.5549 7.38751 20.5549H11.457C11.457 20.5549 12.1268 10.0226 12.1268 5.62914Z" fill="url(#paint1_radial_211_1172)"/>
<path d="M12.1268 5.62914V3.31689H9.84151C9.73758 3.31748 9.6348 3.33863 9.53908 3.37912C9.44337 3.41962 9.35662 3.47866 9.28383 3.55284C9.21104 3.62703 9.15366 3.71488 9.11499 3.81135C9.07631 3.90781 9.05712 4.01098 9.05851 4.11489V5.13789C9.05851 6.87039 8.50501 8.50839 7.19326 9.60639L4.36126 11.9869C0.927756 14.8796 2.93626 20.5549 7.38751 20.5549H11.457C11.457 20.5549 12.1268 10.0226 12.1268 5.62914Z" fill="url(#paint2_radial_211_1172)"/>
<path d="M12.1268 5.62914V3.31689H9.84151C9.73758 3.31748 9.6348 3.33863 9.53908 3.37912C9.44337 3.41962 9.35662 3.47866 9.28383 3.55284C9.21104 3.62703 9.15366 3.71488 9.11499 3.81135C9.07631 3.90781 9.05712 4.01098 9.05851 4.11489V5.13789C9.05851 6.87039 8.50501 8.50839 7.19326 9.60639L4.36126 11.9869C0.927756 14.8796 2.93626 20.5549 7.38751 20.5549H11.457C11.457 20.5549 12.1268 10.0226 12.1268 5.62914Z" fill="url(#paint3_linear_211_1172)"/>
<g filter="url(#filter0_f_211_1172)">
<path d="M11.175 4.33365C11.178 4.1259 11.001 3.95865 10.8165 4.05465C10.659 4.1379 10.524 4.2819 10.524 4.5084C10.524 6.12165 10.758 8.6439 10.008 10.1251C9.14926 11.8201 7.70626 11.9131 6.89026 13.8046C5.78926 16.3599 6.89026 20.1564 9.72676 20.1564C10.935 17.3589 11.145 6.4899 11.175 4.33365Z" fill="url(#paint4_linear_211_1172)"/>
</g>
<path d="M11.8523 3.31689H14.1465C14.5815 3.31689 14.9295 3.67164 14.9295 4.11489V5.13789C14.9295 6.87039 15.474 8.50839 16.7858 9.60639L19.617 11.9869C23.0513 14.8796 21.0428 20.5549 16.5915 20.5549H12.5213C12.5213 20.5549 11.8523 9.12189 11.8523 3.31689Z" fill="#FFC6AD"/>
<path d="M11.8523 3.31689H14.1465C14.5815 3.31689 14.9295 3.67164 14.9295 4.11489V5.13789C14.9295 6.87039 15.474 8.50839 16.7858 9.60639L19.617 11.9869C23.0513 14.8796 21.0428 20.5549 16.5915 20.5549H12.5213C12.5213 20.5549 11.8523 9.12189 11.8523 3.31689Z" fill="url(#paint5_radial_211_1172)"/>
<path d="M11.8523 3.31689H14.1465C14.5815 3.31689 14.9295 3.67164 14.9295 4.11489V5.13789C14.9295 6.87039 15.474 8.50839 16.7858 9.60639L19.617 11.9869C23.0513 14.8796 21.0428 20.5549 16.5915 20.5549H12.5213C12.5213 20.5549 11.8523 9.12189 11.8523 3.31689Z" fill="url(#paint6_radial_211_1172)"/>
<path d="M11.8523 3.31689H14.1465C14.5815 3.31689 14.9295 3.67164 14.9295 4.11489V5.13789C14.9295 6.87039 15.474 8.50839 16.7858 9.60639L19.617 11.9869C23.0513 14.8796 21.0428 20.5549 16.5915 20.5549H12.5213C12.5213 20.5549 11.8523 9.12189 11.8523 3.31689Z" fill="url(#paint7_radial_211_1172)"/>
<path d="M11.8523 3.31689H14.1465C14.5815 3.31689 14.9295 3.67164 14.9295 4.11489V5.13789C14.9295 6.87039 15.474 8.50839 16.7858 9.60639L19.617 11.9869C23.0513 14.8796 21.0428 20.5549 16.5915 20.5549H12.5213C12.5213 20.5549 11.8523 9.12189 11.8523 3.31689Z" fill="url(#paint8_linear_211_1172)"/>
<g filter="url(#filter1_f_211_1172)">
<path d="M13.749 4.61724C13.7588 4.27974 13.509 4.02549 13.2653 3.88224C13.0778 3.77199 12.903 3.93399 12.9173 4.14999L13.9763 20.1565C17.0063 20.1565 19.3538 16.723 17.3468 12.8912C16.5495 11.3687 15.3878 10.4485 14.3205 8.64849C13.5345 7.32399 13.7078 6.07374 13.749 4.61724Z" fill="url(#paint9_linear_211_1172)"/>
</g>
<path d="M13.2188 5.67917L13.2533 3.69842C13.2543 3.64854 13.2453 3.59897 13.2269 3.55261C13.2085 3.50624 13.181 3.46401 13.1461 3.42839C13.1112 3.39277 13.0695 3.36448 13.0235 3.34516C12.9775 3.32585 12.9281 3.31591 12.8783 3.31592H11.0903C11.0391 3.31593 10.9885 3.3264 10.9416 3.34668C10.8946 3.36696 10.8524 3.39663 10.8173 3.43386C10.7822 3.47109 10.7552 3.51509 10.7378 3.56317C10.7203 3.61124 10.7129 3.66238 10.716 3.71342L10.8285 5.67842C10.8473 6.21992 10.782 7.76717 10.2773 8.76617C9.41851 10.4649 8.46751 11.1197 7.40626 12.8912C5.88301 15.4337 7.00801 20.5547 10.1835 20.5547H13.7348C16.5473 20.5547 18.516 16.7222 16.6523 12.8912C15.912 11.3687 14.7488 10.5662 13.7573 8.76617C13.2188 7.78742 13.1895 6.38267 13.2188 5.67917Z" fill="url(#paint10_radial_211_1172)"/>
<path d="M13.2188 5.67917L13.2533 3.69842C13.2543 3.64854 13.2453 3.59897 13.2269 3.55261C13.2085 3.50624 13.181 3.46401 13.1461 3.42839C13.1112 3.39277 13.0695 3.36448 13.0235 3.34516C12.9775 3.32585 12.9281 3.31591 12.8783 3.31592H11.0903C11.0391 3.31593 10.9885 3.3264 10.9416 3.34668C10.8946 3.36696 10.8524 3.39663 10.8173 3.43386C10.7822 3.47109 10.7552 3.51509 10.7378 3.56317C10.7203 3.61124 10.7129 3.66238 10.716 3.71342L10.8285 5.67842C10.8473 6.21992 10.782 7.76717 10.2773 8.76617C9.41851 10.4649 8.46751 11.1197 7.40626 12.8912C5.88301 15.4337 7.00801 20.5547 10.1835 20.5547H13.7348C16.5473 20.5547 18.516 16.7222 16.6523 12.8912C15.912 11.3687 14.7488 10.5662 13.7573 8.76617C13.2188 7.78742 13.1895 6.38267 13.2188 5.67917Z" fill="url(#paint11_radial_211_1172)"/>
<path d="M13.2188 5.67917L13.2533 3.69842C13.2543 3.64854 13.2453 3.59897 13.2269 3.55261C13.2085 3.50624 13.181 3.46401 13.1461 3.42839C13.1112 3.39277 13.0695 3.36448 13.0235 3.34516C12.9775 3.32585 12.9281 3.31591 12.8783 3.31592H11.0903C11.0391 3.31593 10.9885 3.3264 10.9416 3.34668C10.8946 3.36696 10.8524 3.39663 10.8173 3.43386C10.7822 3.47109 10.7552 3.51509 10.7378 3.56317C10.7203 3.61124 10.7129 3.66238 10.716 3.71342L10.8285 5.67842C10.8473 6.21992 10.782 7.76717 10.2773 8.76617C9.41851 10.4649 8.46751 11.1197 7.40626 12.8912C5.88301 15.4337 7.00801 20.5547 10.1835 20.5547H13.7348C16.5473 20.5547 18.516 16.7222 16.6523 12.8912C15.912 11.3687 14.7488 10.5662 13.7573 8.76617C13.2188 7.78742 13.1895 6.38267 13.2188 5.67917Z" fill="url(#paint12_radial_211_1172)"/>
<path d="M13.2188 5.67917L13.2533 3.69842C13.2543 3.64854 13.2453 3.59897 13.2269 3.55261C13.2085 3.50624 13.181 3.46401 13.1461 3.42839C13.1112 3.39277 13.0695 3.36448 13.0235 3.34516C12.9775 3.32585 12.9281 3.31591 12.8783 3.31592H11.0903C11.0391 3.31593 10.9885 3.3264 10.9416 3.34668C10.8946 3.36696 10.8524 3.39663 10.8173 3.43386C10.7822 3.47109 10.7552 3.51509 10.7378 3.56317C10.7203 3.61124 10.7129 3.66238 10.716 3.71342L10.8285 5.67842C10.8473 6.21992 10.782 7.76717 10.2773 8.76617C9.41851 10.4649 8.46751 11.1197 7.40626 12.8912C5.88301 15.4337 7.00801 20.5547 10.1835 20.5547H13.7348C16.5473 20.5547 18.516 16.7222 16.6523 12.8912C15.912 11.3687 14.7488 10.5662 13.7573 8.76617C13.2188 7.78742 13.1895 6.38267 13.2188 5.67917Z" fill="url(#paint13_radial_211_1172)"/>
<path d="M13.2188 5.67917L13.2533 3.69842C13.2543 3.64854 13.2453 3.59897 13.2269 3.55261C13.2085 3.50624 13.181 3.46401 13.1461 3.42839C13.1112 3.39277 13.0695 3.36448 13.0235 3.34516C12.9775 3.32585 12.9281 3.31591 12.8783 3.31592H11.0903C11.0391 3.31593 10.9885 3.3264 10.9416 3.34668C10.8946 3.36696 10.8524 3.39663 10.8173 3.43386C10.7822 3.47109 10.7552 3.51509 10.7378 3.56317C10.7203 3.61124 10.7129 3.66238 10.716 3.71342L10.8285 5.67842C10.8473 6.21992 10.782 7.76717 10.2773 8.76617C9.41851 10.4649 8.46751 11.1197 7.40626 12.8912C5.88301 15.4337 7.00801 20.5547 10.1835 20.5547H13.7348C16.5473 20.5547 18.516 16.7222 16.6523 12.8912C15.912 11.3687 14.7488 10.5662 13.7573 8.76617C13.2188 7.78742 13.1895 6.38267 13.2188 5.67917Z" fill="url(#paint14_radial_211_1172)"/>
<path d="M13.2188 5.67917L13.2533 3.69842C13.2543 3.64854 13.2453 3.59897 13.2269 3.55261C13.2085 3.50624 13.181 3.46401 13.1461 3.42839C13.1112 3.39277 13.0695 3.36448 13.0235 3.34516C12.9775 3.32585 12.9281 3.31591 12.8783 3.31592H11.0903C11.0391 3.31593 10.9885 3.3264 10.9416 3.34668C10.8946 3.36696 10.8524 3.39663 10.8173 3.43386C10.7822 3.47109 10.7552 3.51509 10.7378 3.56317C10.7203 3.61124 10.7129 3.66238 10.716 3.71342L10.8285 5.67842C10.8473 6.21992 10.782 7.76717 10.2773 8.76617C9.41851 10.4649 8.46751 11.1197 7.40626 12.8912C5.88301 15.4337 7.00801 20.5547 10.1835 20.5547H13.7348C16.5473 20.5547 18.516 16.7222 16.6523 12.8912C15.912 11.3687 14.7488 10.5662 13.7573 8.76617C13.2188 7.78742 13.1895 6.38267 13.2188 5.67917Z" fill="url(#paint15_radial_211_1172)"/>
<path d="M13.2188 5.67917L13.2533 3.69842C13.2543 3.64854 13.2453 3.59897 13.2269 3.55261C13.2085 3.50624 13.181 3.46401 13.1461 3.42839C13.1112 3.39277 13.0695 3.36448 13.0235 3.34516C12.9775 3.32585 12.9281 3.31591 12.8783 3.31592H11.0903C11.0391 3.31593 10.9885 3.3264 10.9416 3.34668C10.8946 3.36696 10.8524 3.39663 10.8173 3.43386C10.7822 3.47109 10.7552 3.51509 10.7378 3.56317C10.7203 3.61124 10.7129 3.66238 10.716 3.71342L10.8285 5.67842C10.8473 6.21992 10.782 7.76717 10.2773 8.76617C9.41851 10.4649 8.46751 11.1197 7.40626 12.8912C5.88301 15.4337 7.00801 20.5547 10.1835 20.5547H13.7348C16.5473 20.5547 18.516 16.7222 16.6523 12.8912C15.912 11.3687 14.7488 10.5662 13.7573 8.76617C13.2188 7.78742 13.1895 6.38267 13.2188 5.67917Z" fill="url(#paint16_radial_211_1172)"/>
<path d="M13.2188 5.67917L13.2533 3.69842C13.2543 3.64854 13.2453 3.59897 13.2269 3.55261C13.2085 3.50624 13.181 3.46401 13.1461 3.42839C13.1112 3.39277 13.0695 3.36448 13.0235 3.34516C12.9775 3.32585 12.9281 3.31591 12.8783 3.31592H11.0903C11.0391 3.31593 10.9885 3.3264 10.9416 3.34668C10.8946 3.36696 10.8524 3.39663 10.8173 3.43386C10.7822 3.47109 10.7552 3.51509 10.7378 3.56317C10.7203 3.61124 10.7129 3.66238 10.716 3.71342L10.8285 5.67842C10.8473 6.21992 10.782 7.76717 10.2773 8.76617C9.41851 10.4649 8.46751 11.1197 7.40626 12.8912C5.88301 15.4337 7.00801 20.5547 10.1835 20.5547H13.7348C16.5473 20.5547 18.516 16.7222 16.6523 12.8912C15.912 11.3687 14.7488 10.5662 13.7573 8.76617C13.2188 7.78742 13.1895 6.38267 13.2188 5.67917Z" fill="url(#paint17_radial_211_1172)"/>
<g filter="url(#filter2_f_211_1172)">
<path d="M11.1098 3.86738C11.0153 3.71738 10.8983 3.71138 10.8518 3.72713C11.0393 6.28163 10.8518 7.21913 10.617 8.60213C11.2268 7.50038 11.2275 4.05488 11.1098 3.86738Z" fill="url(#paint18_linear_211_1172)"/>
</g>
<g filter="url(#filter3_f_211_1172)">
<path d="M11.6018 3.78564H12.5625V7.99239H11.6018V3.78564Z" fill="url(#paint19_linear_211_1172)"/>
</g>
<defs>
<filter id="filter0_f_211_1172" x="5.96979" y="3.52686" width="5.70526" height="17.1294" filterUnits="userSpaceOnUse" color-interpolation-filters="sRGB">
<feFlood flood-opacity="0" result="BackgroundImageFix"/>
<feBlend mode="normal" in="SourceGraphic" in2="BackgroundImageFix" result="shape"/>
<feGaussianBlur stdDeviation="0.25" result="effect1_foregroundBlur_211_1172"/>
</filter>
<filter id="filter1_f_211_1172" x="12.4164" y="3.34668" width="6.17725" height="17.3096" filterUnits="userSpaceOnUse" color-interpolation-filters="sRGB">
<feFlood flood-opacity="0" result="BackgroundImageFix"/>
<feBlend mode="normal" in="SourceGraphic" in2="BackgroundImageFix" result="shape"/>
<feGaussianBlur stdDeviation="0.25" result="effect1_foregroundBlur_211_1172"/>
</filter>
<filter id="filter2_f_211_1172" x="10.367" y="3.47119" width="1.0535" height="5.38086" filterUnits="userSpaceOnUse" color-interpolation-filters="sRGB">
<feFlood flood-opacity="0" result="BackgroundImageFix"/>
<feBlend mode="normal" in="SourceGraphic" in2="BackgroundImageFix" result="shape"/>
<feGaussianBlur stdDeviation="0.125" result="effect1_foregroundBlur_211_1172"/>
</filter>
<filter id="filter3_f_211_1172" x="11.3518" y="3.53564" width="1.46075" height="4.70654" filterUnits="userSpaceOnUse" color-interpolation-filters="sRGB">
<feFlood flood-opacity="0" result="BackgroundImageFix"/>
<feBlend mode="normal" in="SourceGraphic" in2="BackgroundImageFix" result="shape"/>
<feGaussianBlur stdDeviation="0.125" result="effect1_foregroundBlur_211_1172"/>
</filter>
<linearGradient id="paint0_linear_211_1172" x1="7.37701" y1="3.31689" x2="7.37701" y2="20.5549" gradientUnits="userSpaceOnUse">
<stop stop-color="#B38780"/>
<stop offset="0.433" stop-color="#B98C7D"/>
<stop offset="0.77" stop-color="#C2888B"/>
<stop offset="1" stop-color="#B14C8B"/>
</linearGradient>
<radialGradient id="paint1_radial_211_1172" cx="0" cy="0" r="1" gradientUnits="userSpaceOnUse" gradientTransform="translate(4.21876 8.9539) rotate(124.992) scale(6.86619 4.35474)">
<stop stop-color="#977666"/>
<stop offset="0.649" stop-color="#765A4D" stop-opacity="0.262"/>
<stop offset="1" stop-color="#6B5045" stop-opacity="0"/>
</radialGradient>
<radialGradient id="paint2_radial_211_1172" cx="0" cy="0" r="1" gradientUnits="userSpaceOnUse" gradientTransform="translate(6.84376 16.4539) rotate(77.3914) scale(3.65054 3.39364)">
<stop stop-color="#B35889"/>
<stop offset="0.903" stop-color="#B16B84" stop-opacity="0"/>
</radialGradient>
<linearGradient id="paint3_linear_211_1172" x1="8.39101" y1="3.98514" x2="9.07051" y2="5.22714" gradientUnits="userSpaceOnUse">
<stop stop-color="#967666"/>
<stop offset="0.387" stop-color="#957665" stop-opacity="0"/>
</linearGradient>
<linearGradient id="paint4_linear_211_1172" x1="8.69326" y1="3.31665" x2="8.69326" y2="20.2269" gradientUnits="userSpaceOnUse">
<stop stop-color="#94676F"/>
<stop offset="1" stop-color="#A85284"/>
</linearGradient>
<radialGradient id="paint5_radial_211_1172" cx="0" cy="0" r="1" gradientUnits="userSpaceOnUse" gradientTransform="translate(19.875 14.2976) rotate(90) scale(6.25781 4.35937)">
<stop stop-color="#FFEAD4"/>
<stop offset="0.594" stop-color="#FFCAB0"/>
<stop offset="1" stop-color="#FFC7AE"/>
</radialGradient>
<radialGradient id="paint6_radial_211_1172" cx="0" cy="0" r="1" gradientUnits="userSpaceOnUse" gradientTransform="translate(16.4535 19.7351) rotate(72.4165) scale(6.98249 6.76878)">
<stop stop-color="#AF478A"/>
<stop offset="0.265" stop-color="#BA558B"/>
<stop offset="0.951" stop-color="#D17295" stop-opacity="0"/>
</radialGradient>
<radialGradient id="paint7_radial_211_1172" cx="0" cy="0" r="1" gradientUnits="userSpaceOnUse" gradientTransform="translate(17.0625 5.11014) rotate(84.4588) scale(6.31074 4.72897)">
<stop offset="0.512" stop-color="#FFEED5"/>
<stop offset="0.693" stop-color="#FFEBD4" stop-opacity="0"/>
</radialGradient>
<linearGradient id="paint8_linear_211_1172" x1="16.602" y1="3.31689" x2="16.602" y2="20.5549" gradientUnits="userSpaceOnUse">
<stop stop-color="#D1A690"/>
<stop offset="0.02" stop-color="#CFA58F" stop-opacity="0"/>
</linearGradient>
<linearGradient id="paint9_linear_211_1172" x1="15.492" y1="3.75024" x2="15.492" y2="20.1565" gradientUnits="userSpaceOnUse">
<stop stop-color="#D29C97"/>
<stop offset="0.389" stop-color="#DCA996"/>
<stop offset="0.694" stop-color="#DF999F"/>
<stop offset="0.871" stop-color="#BB578C"/>
<stop offset="1" stop-color="#B9538A"/>
</linearGradient>
<radialGradient id="paint10_radial_211_1172" cx="0" cy="0" r="1" gradientUnits="userSpaceOnUse" gradientTransform="translate(16.9225 14.1557) rotate(167.546) scale(10.4333 13.7015)">
<stop stop-color="#FFFEDC"/>
<stop offset="0.39" stop-color="#EDC3B2"/>
<stop offset="0.792" stop-color="#B6A18C"/>
<stop offset="1" stop-color="#B08886"/>
</radialGradient>
<radialGradient id="paint11_radial_211_1172" cx="0" cy="0" r="1" gradientUnits="userSpaceOnUse" gradientTransform="translate(10.641 20.0627) rotate(71.7541) scale(8.9829 7.7937)">
<stop offset="0.075" stop-color="#B46490"/>
<stop offset="0.501" stop-color="#B46391" stop-opacity="0.342"/>
<stop offset="0.83" stop-color="#B46292" stop-opacity="0"/>
</radialGradient>
<radialGradient id="paint12_radial_211_1172" cx="0" cy="0" r="1" gradientUnits="userSpaceOnUse" gradientTransform="translate(13.3591 5.18027) rotate(88.161) scale(5.11201 1.53692)">
<stop offset="0.309" stop-color="#FFF8DE"/>
<stop offset="0.692" stop-color="#DEC1B8"/>
<stop offset="1" stop-color="#D6BAB1" stop-opacity="0"/>
</radialGradient>
<radialGradient id="paint13_radial_211_1172" cx="0" cy="0" r="1" gradientUnits="userSpaceOnUse" gradientTransform="translate(8.11009 7.68787) rotate(110.556) scale(6.0075 3.71092)">
<stop stop-color="#A08E79"/>
<stop offset="1" stop-color="#9F8C79" stop-opacity="0"/>
</radialGradient>
<radialGradient id="paint14_radial_211_1172" cx="0" cy="0" r="1" gradientUnits="userSpaceOnUse" gradientTransform="translate(16.5 14.3912) rotate(65.2249) scale(2.68459 2.4587)">
<stop stop-color="#FFFFDD"/>
<stop offset="1" stop-color="#FFDDC5" stop-opacity="0"/>
</radialGradient>
<radialGradient id="paint15_radial_211_1172" cx="0" cy="0" r="1" gradientUnits="userSpaceOnUse" gradientTransform="translate(5.48476 15.5162) rotate(86.4012) scale(7.46785 4.509)">
<stop stop-color="#C39492"/>
<stop offset="1" stop-color="#B28683" stop-opacity="0"/>
</radialGradient>
<radialGradient id="paint16_radial_211_1172" cx="0" cy="0" r="1" gradientUnits="userSpaceOnUse" gradientTransform="translate(12.0585 2.88317) rotate(90) scale(1.125 1.54492)">
<stop stop-color="#C1B197"/>
<stop offset="1" stop-color="#DAC9AD" stop-opacity="0"/>
</radialGradient>
<radialGradient id="paint17_radial_211_1172" cx="0" cy="0" r="1" gradientUnits="userSpaceOnUse" gradientTransform="translate(16.4528 9.04667) rotate(59.556) scale(6.19832 3.82878)">
<stop offset="0.411" stop-color="#FCE4C1"/>
<stop offset="1" stop-color="#FFE6C3" stop-opacity="0"/>
</radialGradient>
<linearGradient id="paint18_linear_211_1172" x1="10.8938" y1="3.72113" x2="10.8938" y2="8.22713" gradientUnits="userSpaceOnUse">
<stop stop-color="#C2A9A3"/>
<stop offset="0.758" stop-color="#C2ACA8"/>
<stop offset="1" stop-color="#C4C4C4" stop-opacity="0"/>
</linearGradient>
<linearGradient id="paint19_linear_211_1172" x1="12.0818" y1="3.78564" x2="12.0818" y2="7.99239" gradientUnits="userSpaceOnUse">
<stop stop-color="#CDB0AB"/>
<stop offset="1" stop-color="#D6BEAF" stop-opacity="0"/>
</linearGradient>
</defs>
</svg>
