<svg width="24" height="24" viewBox="0 0 24 24" fill="none" xmlns="http://www.w3.org/2000/svg">
<path fill-rule="evenodd" clip-rule="evenodd" d="M11.2582 3.67369C11.6392 3.42169 11.9738 3.20119 11.6707 2.89744L10.6095 1.83769C10.3987 1.62691 10.1128 1.50844 9.81466 1.5083C9.51653 1.50816 9.23054 1.62636 9.0195 1.83694L6.08325 4.76569C5.30965 5.53925 4.87503 6.58843 4.875 7.68244V11.1032C4.281 11.1984 3.65625 11.2502 3 11.2502V17.5667C5.1255 17.5667 7.02075 17.3109 8.712 16.8797L9.71025 19.5692C10.3102 21.1862 10.6927 21.8214 12.4177 21.8214L15.0353 21.9969C15.6563 21.9969 17.2575 21.7982 17.2575 21.1764V19.8759C17.2575 19.5776 17.139 19.2914 16.928 19.0804C16.717 18.8695 16.4309 18.7509 16.1325 18.7509H12.4177C12.341 18.7511 12.2661 18.7278 12.2031 18.6841C12.1401 18.6404 12.0919 18.5784 12.0653 18.5064L11.1667 16.0839C12.5656 15.5283 13.8963 14.8144 15.1327 13.9562V14.4849L17.5778 15.9129C19.0335 16.5744 21.4403 17.4294 21.9457 15.9129C22.5607 14.0687 21.0788 12.2004 19.1437 12.3804L16.8998 12.5874C18.2123 11.4579 19.2323 10.3187 20.0272 9.38719C21.066 8.16919 21.9563 7.03669 21.0405 5.87269C20.605 5.32635 20.0999 4.83923 19.5382 4.42369C17.5133 2.91094 15.2107 2.55169 14.3258 3.59119C14.1818 3.72319 14.0558 3.87919 13.9598 4.05769C12.9533 5.91619 10.9973 8.71144 7.785 10.2114L7.887 7.28944C7.88702 7.19017 7.9264 7.09497 7.9965 7.02469L10.77 4.04269C10.9065 3.90619 11.088 3.78694 11.259 3.67294" fill="#E19747"/>
<path fill-rule="evenodd" clip-rule="evenodd" d="M11.67 2.89692C11.7747 3.00141 11.8577 3.12551 11.9143 3.26211C11.971 3.39872 12.0001 3.54516 12.0001 3.69304C12.0001 3.84093 11.971 3.98737 11.9143 4.12397C11.8577 4.26058 11.7747 4.38468 11.67 4.48917L8.7345 7.41642C8.6997 7.45131 8.67212 7.49271 8.65333 7.53827C8.63454 7.58383 8.62491 7.63264 8.625 7.68192V9.77442C8.091 10.0819 7.518 10.3527 6.9045 10.5769C6.795 9.03117 6.828 6.69192 7.47675 5.99967C8.2965 5.12517 10.314 3.26442 11.214 2.44092L11.67 2.89692ZM7.95 18.1954L8.55 19.8109C8.84302 20.6003 9.3706 21.2811 10.0619 21.7619C10.7531 22.2427 11.575 22.5004 12.417 22.5004H16.1325C16.4309 22.5004 16.717 22.3819 16.928 22.1709C17.139 21.9599 17.2575 21.6738 17.2575 21.3754V21.0087L17.241 21.0117C10.7415 22.2852 9.531 17.7642 10.5758 17.4229C11.8605 16.9562 13.1018 16.3796 14.2875 15.6994L18.2775 17.5129C18.618 17.6678 18.987 17.75 19.361 17.7544C19.735 17.7587 20.1059 17.6851 20.4499 17.5382C20.7939 17.3913 21.1035 17.1743 21.359 16.9011C21.6144 16.6279 21.8102 16.3045 21.9338 15.9514L21.945 15.9177L21.9465 15.9132C22.0375 15.6372 22.0845 15.3642 22.0875 15.0942L21.975 15.1279C21.318 15.3229 20.2215 15.6499 19.1258 15.3754C18.0285 15.1017 17.352 14.5789 16.9605 13.9407C16.7216 13.5382 16.5732 13.0885 16.5255 12.6229L18.8265 12.4099C19.7557 11.58 20.6279 10.6885 21.4373 9.74142C21.5488 9.61042 21.6395 9.47267 21.7095 9.32817C21.7285 9.30567 21.747 9.28242 21.765 9.25842C22.4093 8.39592 21.9735 6.92367 20.8035 5.58642C20.7085 5.75142 20.6118 5.92067 20.5133 6.09417C19.4963 7.88667 18.1658 10.2297 14.6258 13.1254C12.303 15.0244 6.75 16.5004 3.375 16.5004L3 18.0004V18.7504C4.761 18.7504 6.4125 18.5472 7.95 18.1954Z" fill="#B97028"/>
<path fill-rule="evenodd" clip-rule="evenodd" d="M7.22025 3.63184C7.4325 4.21909 7.815 4.83184 8.31225 5.27659C8.877 5.78134 9.55575 6.04309 10.2975 5.85859L9.5055 6.64909C8.85825 6.56959 8.283 6.25534 7.81275 5.83534C7.308 5.38459 6.9075 4.79884 6.6435 4.20634L7.22025 3.63184ZM4.875 9.09634V8.31334C6.1305 7.96947 7.46948 8.11141 8.625 8.71084V9.57559C8.0742 9.22356 7.45224 8.99794 6.80384 8.91494C6.15544 8.83195 5.49671 8.89364 4.875 9.09559M11.5575 22.4088C11.811 22.4633 12.0707 22.4933 12.3367 22.4988C12.215 21.9107 12.2186 21.3035 12.3472 20.7168C12.5062 20.0043 12.8752 19.2798 13.617 18.7496H12.507C12.0627 19.2662 11.756 19.8866 11.6153 20.5533C11.4824 21.163 11.4633 21.792 11.5575 22.4088ZM20.5238 10.7568C19.7183 9.59434 18.5588 8.49934 17.28 7.58884C15.9615 6.64984 14.4945 5.89009 13.119 5.44909C12.9775 5.66059 12.826 5.87559 12.6645 6.09409C14.013 6.49159 15.5017 7.24309 16.8442 8.20009C18.1245 9.11209 19.2495 10.1951 19.9905 11.3066C20.1775 11.1191 20.3552 10.9358 20.5238 10.7568ZM17.9423 14.5413C18.2753 13.7118 18.7882 12.9333 19.4925 12.3686C19.8525 12.3813 20.1908 12.4638 20.4975 12.6026C19.6455 13.0503 19.0215 13.8648 18.6375 14.8203C18.2858 15.6978 18.1515 16.6578 18.2213 17.4866L17.454 17.1378C17.4458 16.2488 17.6122 15.3668 17.9423 14.5413ZM14.244 15.7218C14.2095 13.8101 13.917 12.1871 13.2165 10.9278C12.5977 9.81334 11.6745 9.00784 10.3905 8.53234C10.164 8.72384 9.92725 8.90934 9.68025 9.08884C11.055 9.47884 11.9692 10.2258 12.561 11.2916C13.2187 12.4751 13.4985 14.0876 13.4985 16.1253H13.5075C13.758 15.9938 14.003 15.8593 14.244 15.7218ZM7.5525 13.9301C7.88243 15.3619 7.88192 16.85 7.551 18.2816C7.2825 18.3381 7.01075 18.3896 6.73575 18.4361C7.13625 17.0336 7.14075 15.4638 6.822 14.1011C6.48975 12.6806 5.835 11.5833 5.01225 11.0801C5.33925 11.0236 5.657 10.9541 5.9655 10.8716C6.735 11.5991 7.269 12.7188 7.5525 13.9301Z" fill="#D3883E"/>
<path fill-rule="evenodd" clip-rule="evenodd" d="M10.2975 5.85749C9.5565 6.04199 8.87775 5.78024 8.31225 5.27549L8.25075 5.21924C8.05575 5.40974 7.87575 5.58899 7.719 5.74799C7.75 5.77799 7.78125 5.80699 7.81275 5.83499C8.283 6.25499 8.859 6.56924 9.5055 6.64799L10.2975 5.85749ZM8.625 8.71124C8.08345 8.42991 7.4964 8.24658 6.891 8.16974C6.87375 8.41574 6.86325 8.66924 6.8595 8.92199C7.48804 9.01059 8.09016 9.23338 8.625 9.57524V8.71124ZM17.4547 17.1375C17.4476 16.3524 17.576 15.5719 17.8342 14.8305C18.0312 14.9615 18.2562 15.0772 18.5092 15.1777C18.2638 15.9211 18.1662 16.7054 18.222 17.4862L17.4547 17.1375ZM13.3687 13.953C13.4587 14.613 13.5 15.3367 13.5 16.1242H13.509C13.7595 15.9927 14.0052 15.8582 14.2462 15.7207C14.2366 14.9887 14.176 14.2581 14.0647 13.5345C13.8487 13.6775 13.6167 13.817 13.3687 13.953ZM6.7365 18.4357C6.95175 17.6835 7.053 16.8832 7.0515 16.0912C7.299 16.0427 7.54825 15.9902 7.79925 15.9337C7.81518 16.7235 7.73204 17.5122 7.55175 18.2812C7.28375 18.3372 7.012 18.3887 6.7365 18.4357ZM18.8002 8.81474C19.464 9.42374 20.0542 10.0785 20.5245 10.7565C20.356 10.9345 20.178 11.1175 19.9905 11.3055C19.5577 10.6552 18.993 10.0155 18.3435 9.41399C18.5045 9.20999 18.6567 9.00999 18.8002 8.81399M11.6152 20.5522C11.6322 20.4752 11.6517 20.3977 11.6737 20.3197C11.8747 20.4597 12.1002 20.5872 12.3502 20.7022L12.3472 20.715C12.2184 21.3027 12.2151 21.9109 12.3375 22.5C12.0752 22.4949 11.814 22.4647 11.5575 22.41C11.4633 21.7931 11.4831 21.1642 11.616 20.5545" fill="#975617"/>
<path d="M1.5 15C1.5 12.9289 2.17157 11.25 3 11.25C3.82843 11.25 4.5 12.9289 4.5 15C4.5 17.0711 3.82843 18.75 3 18.75C2.17157 18.75 1.5 17.0711 1.5 15Z" fill="#FFCE7C"/>
<path d="M2.25 15C2.25 13.7574 2.58579 12.75 3 12.75C3.41421 12.75 3.75 13.7574 3.75 15C3.75 16.2426 3.41421 17.25 3 17.25C2.58579 17.25 2.25 16.2426 2.25 15Z" fill="#FFDEA7"/>
</svg>
