<svg width="24" height="24" viewBox="0 0 24 24" fill="none" xmlns="http://www.w3.org/2000/svg">
<path d="M11.655 1.28227C11.655 1.28227 10.3256 0.34102 10.2206 0.79852C10.1156 1.25602 10.2994 2.17102 9.91312 2.76915C9.52687 3.36727 8.99812 3.64852 8.57625 3.78914C8.15437 3.92977 3.57937 5.65477 2.20687 10.2298C0.834374 14.8048 2.94562 18.7085 6.16687 20.5779C8.80687 22.1098 10.5487 21.881 10.5487 21.881C10.5487 21.881 10.1962 22.1979 10.0556 22.2335C9.915 22.2691 9.44062 22.286 9.21187 22.3216C8.98312 22.3573 8.17312 22.6385 8.24437 22.8504C8.31562 23.0623 9.01875 22.7623 9.31875 22.7098C9.61875 22.6573 10.1287 22.6216 10.2337 22.5691C10.3387 22.5166 10.8487 22.1641 10.8487 22.1641C10.8487 22.1641 10.6556 22.6929 10.4794 22.886C10.3031 23.0791 10.6369 23.3435 11.025 23.2385C11.4131 23.1335 11.6944 22.2185 11.6944 22.2185C11.6944 22.2185 11.7112 22.7641 11.7112 22.9404C11.7112 23.1166 11.6587 23.3979 11.7281 23.4691C11.7994 23.5404 12.3262 23.6266 12.4856 23.5404C12.645 23.4541 12.6094 23.0998 12.6094 23.0998C12.6094 23.0998 13.0837 23.3998 13.3837 23.5573C13.6837 23.7148 13.9819 23.8741 14.0869 23.7335C14.1919 23.5929 14.1038 23.3116 13.9988 23.2404C13.8938 23.1691 13.5244 22.9948 13.4531 22.8879C13.3819 22.7829 13.2413 22.466 13.2413 22.466C13.2413 22.466 13.6462 22.1848 13.8225 22.2204C13.9988 22.256 14.4563 22.7491 14.7019 22.8541C14.9475 22.9591 15.4406 23.2948 15.6169 23.2404C15.7931 23.1879 15.9169 23.0285 15.8456 22.9404C15.7744 22.8523 15.195 22.571 15.0544 22.4304C14.9137 22.2898 14.3681 21.8491 14.3681 21.8491C14.3681 21.8491 17.1112 21.3916 18.9431 19.6591C21.0469 17.6698 23.1806 13.331 21.1331 9.12727C19.1794 5.11477 15.3788 3.87352 14.085 3.4254C13.4156 3.19289 13.2937 2.84414 13.2131 2.36977C13.1344 1.89539 13.0819 0.549145 12.7125 0.46852C12.3431 0.387895 11.655 1.28227 11.655 1.28227Z" fill="url(#paint0_radial_211_1167)"/>
<path d="M11.0569 2.15252C11.3381 2.17877 11.205 1.67814 11.6288 1.61627C11.9888 1.56377 12.015 2.08314 12.2438 1.99502C12.4725 1.90689 12.3919 1.23939 12.4294 0.877516C12.465 0.525016 12.7106 0.463141 12.7106 0.463141C12.7106 0.463141 12.5363 0.270016 12.1669 0.375016C11.7975 0.480016 11.6569 0.956266 11.6569 0.956266C11.6569 0.956266 11.3044 0.341266 10.8131 0.393766C10.3575 0.442516 10.2506 0.746266 10.2506 0.746266C10.2506 0.746266 10.6031 0.763141 10.7081 1.02752C10.8131 1.29189 10.68 2.11689 11.0569 2.15252Z" fill="#D17759"/>
<path d="M12.36 6.14828C12.465 6.80828 13.3556 10.1177 13.3988 12.4127C13.4513 15.2814 13.1175 17.2201 12.8438 18.5195C12.5363 19.9802 12.21 21.1333 12.21 21.1333L13.0275 20.1039C13.0275 20.1039 13.7138 17.7114 13.9256 15.4577C14.1113 13.4758 13.9519 11.0495 13.4513 8.70015C12.9488 6.35078 12.5625 4.6689 12.4744 3.86828C12.4106 3.2889 12.3169 2.3814 12.3169 2.3814C12.3169 2.3814 12.8719 3.5589 13.2581 4.12328C13.605 4.62953 14.4544 5.7414 15.3 7.43078C16.245 9.3189 16.9013 11.9008 16.7963 14.012C16.6913 16.1233 16.3031 17.6983 15.8813 18.5177C15.4594 19.3351 14.2969 20.4977 14.2969 20.4977L13.7419 20.972C13.7419 20.972 15.1931 20.5239 15.7481 19.6783C16.3031 18.8326 17.4281 17.1264 17.3756 13.6952C17.3231 10.2639 16.3894 8.32703 15.7219 6.95453C15.1894 5.8614 13.4906 3.60203 13.4906 3.60203C13.4906 3.60203 16.1606 5.5239 16.8113 6.11265C18.4481 7.59015 19.6969 9.36765 19.89 12.632C20.0344 15.0677 19.3613 16.6708 18.6225 17.7264C17.8838 18.782 16.4756 20.3139 16.4756 20.3139L18.6581 18.5364C18.6581 18.5364 20.6813 16.487 20.4975 12.6058C20.3138 8.72453 18.465 6.92265 17.3306 5.87453C16.3613 4.98015 14.565 3.84953 13.8375 3.42015C13.2169 3.05453 13.08 2.70765 13.0013 2.41703C12.9225 2.1264 12.7631 2.13578 12.7631 2.13578L10.6688 2.3289L10.4663 2.2389C10.4663 2.2389 9.4725 3.7914 8.45063 4.52078C7.6875 5.0664 5.8125 6.32453 4.56375 8.20703C3.29813 10.1158 3.14625 12.1314 3.315 14.1545C3.49125 16.2658 4.47563 18.5983 6.35063 19.7589C8.22563 20.9195 10.5469 21.2364 10.5469 21.2364C10.5469 21.2364 9.0975 20.7039 8.36438 20.4002C7.55438 20.0664 6.53438 19.6089 5.5575 18.4652C4.72875 17.4958 3.37125 15.0602 3.78938 11.867C4.08938 9.57953 5.1075 7.96515 6.42938 6.7464C7.81125 5.4714 8.52188 5.01015 8.86688 4.72328C9.65813 4.06328 10.3631 3.0114 10.3631 3.0114C10.3631 3.0114 10.6856 2.70765 10.4156 3.2889C10.185 3.78578 9.36938 4.91453 9.21375 5.13578C8.64563 5.95328 7.8375 6.65828 6.81563 9.35078C5.76 12.1352 6.0675 14.6045 6.41063 15.8964C6.75375 17.1902 7.20188 18.272 7.85438 19.0989C8.64 20.0964 10.4419 21.122 10.4419 21.122C10.4419 21.122 8.94188 19.8264 8.33063 18.9583C7.57313 17.8839 7.18125 16.7158 6.85313 15.3152C6.57188 14.1189 6.465 12.1333 7.275 9.66578C7.90875 7.73828 8.39625 7.10078 9.03 6.1764C9.66375 5.25203 10.0894 4.68578 10.6181 3.82328C10.9275 3.31703 11.22 2.4939 11.22 2.4939L11.3381 2.45828C11.3381 2.45828 11.2069 3.54015 11.0738 4.09515C10.9406 4.65015 10.8019 5.52015 10.4588 6.44453C10.1156 7.3689 8.91375 9.89265 9.015 12.7877C9.13875 16.2808 10.0088 18.4183 10.3519 19.2376C10.695 20.057 11.2313 21.4989 11.2313 21.4989L11.5313 20.4527C11.5313 20.4527 10.1944 17.6983 9.825 15.4014C9.49125 13.3258 9.465 11.9252 9.72 10.3502C9.88125 9.35828 10.8638 6.98078 11.0494 6.29453C11.235 5.60828 11.4713 4.51703 11.5238 4.20015L11.8013 3.0339L12.36 6.14828Z" fill="url(#paint1_radial_211_1167)"/>
<path d="M6.71062 7.29201C6.26999 7.18701 5.86687 7.62575 5.42624 8.40013C5.01374 9.12576 4.80749 9.93576 5.37374 10.0895C5.95499 10.247 6.51749 9.10326 6.67687 8.62888C6.83437 8.15451 7.04249 7.37076 6.71062 7.29201ZM7.95937 8.66451C7.51874 9.83263 7.44937 10.7401 7.85437 10.8826C8.25937 11.0233 8.94562 9.68638 9.13874 9.0695C9.33187 8.45451 9.64874 7.25638 9.20999 7.11576C8.76937 6.97513 8.25937 7.87138 7.95937 8.66451ZM10.53 9.84388C10.3762 10.6108 10.4419 11.0045 10.7944 11.0758C11.1469 11.147 11.2875 10.3183 11.34 9.94888C11.3925 9.57951 11.5687 8.80513 11.1637 8.71701C10.7587 8.62888 10.6519 9.22701 10.53 9.84388Z" fill="#FEEAC4"/>
<defs>
<radialGradient id="paint0_radial_211_1167" cx="0" cy="0" r="1" gradientUnits="userSpaceOnUse" gradientTransform="translate(11.5942 0.220083) scale(20.6754)">
<stop offset="0.187" stop-color="#F2A05B"/>
<stop offset="0.225" stop-color="#F5AD68"/>
<stop offset="0.291" stop-color="#FECC88"/>
<stop offset="0.639" stop-color="#FECC88"/>
<stop offset="0.658" stop-color="#FECC88"/>
<stop offset="0.703" stop-color="#FCC581"/>
<stop offset="0.769" stop-color="#F7B16D"/>
<stop offset="0.814" stop-color="#F3A05C"/>
<stop offset="0.849" stop-color="#E6915B"/>
<stop offset="0.905" stop-color="#D77F59"/>
<stop offset="0.946" stop-color="#D17858"/>
</radialGradient>
<radialGradient id="paint1_radial_211_1167" cx="0" cy="0" r="1" gradientUnits="userSpaceOnUse" gradientTransform="translate(11.4621 1.95953) scale(18.0924 18.0924)">
<stop offset="0.486" stop-color="#F2A05B"/>
<stop offset="0.616" stop-color="#EE9B5B"/>
<stop offset="0.768" stop-color="#E38D5A"/>
<stop offset="0.922" stop-color="#D17759"/>
</radialGradient>
</defs>
</svg>
