<svg width="24" height="24" viewBox="0 0 24 24" fill="none" xmlns="http://www.w3.org/2000/svg">
<g clip-path="url(#clip0_211_1214)">
<path d="M4.60987 0.782414C3.73556 2.05259 3.21084 3.23501 3.07031 4.19829L4.1924 6.03377L5.53415 4.46487C5.57484 3.47051 5.27681 2.18313 4.60987 0.782227V0.782414ZM22.1484 0.920086C20.8144 1.69024 19.8334 2.53141 19.292 3.34001L19.5146 5.48163L21.4014 4.64079C21.865 3.76062 22.1485 2.47095 22.1485 0.920086H22.1484ZM17.8477 2.19884C17.3717 3.1849 17.0602 4.11321 16.9028 4.9323L17.7642 7.63634L18.6914 6.03087L18.3867 3.1143H18.3881C18.2205 2.8019 18.0402 2.49649 17.8476 2.19884H17.8477ZM1.27734 3.78682C1.27148 4.88201 1.38951 5.8541 1.59961 6.66091L3.53906 8.73063L3.68554 6.88348L2.15625 4.38157L2.15765 4.38007C1.87234 4.17051 1.57866 3.97263 1.27734 3.78682ZM7.5044 4.28051C7.10995 4.44476 6.74081 4.61862 6.39843 4.80054L4.55859 6.95538L4.41356 8.80104L6.77784 6.96851C7.09246 6.22301 7.34456 5.31556 7.5044 4.28051ZM15.8116 5.29423C14.6855 8.0172 15.0541 9.88141 16.1806 10.3802L17.1724 8.66337L16.2539 5.78346C16.1106 5.61661 15.9631 5.45346 15.8115 5.29418L15.8116 5.29423ZM22.6567 5.30445C22.4435 5.30313 22.2363 5.30838 22.0342 5.31757L19.4501 6.46891L18.5229 8.07579L21.4452 7.43571C22.0498 6.89805 22.6682 6.18762 23.2572 5.32193C23.0529 5.3118 22.8522 5.30562 22.6567 5.3044L22.6567 5.30445ZM12.0586 5.7132C10.9692 6.80248 10.2383 7.86959 9.92437 8.79077L10.6948 10.802L12.2989 9.50126C12.5189 8.53076 12.4599 7.21113 12.0586 5.7132ZM0.769028 7.4561C0.922778 10.3984 2.05725 11.9238 3.28856 11.8902L3.44531 9.91113L1.37986 7.70801C1.17842 7.61891 0.97471 7.53491 0.769028 7.4561ZM7.48247 7.9893C7.19099 8.05045 6.90175 8.12179 6.61528 8.2032L4.31981 9.98154L4.16456 11.9386C5.40637 12.2906 6.84393 10.9745 7.48237 7.98935L7.48247 7.9893ZM8.23528 8.06257C8.0309 9.13765 7.97043 10.1139 8.03025 10.9454L9.5625 13.336L10.0416 11.5459L8.99123 8.80671H8.99264C8.75047 8.54844 8.49783 8.30019 8.23537 8.06257H8.23528ZM20.77 8.48154L17.9311 9.10113L16.9498 10.8004C17.9192 11.6532 19.7828 11.0832 21.6431 8.66168C21.3543 8.59158 21.063 8.5315 20.77 8.48154ZM14.269 9.67826C13.8513 9.76826 13.4579 9.87326 13.0884 9.9903L10.8867 11.773L10.4076 13.5631L13.0649 12.1905C13.5099 11.5144 13.9238 10.6675 14.269 9.6783L14.269 9.67826ZM21.5405 10.8531C20.3288 11.8058 19.4759 12.7778 19.0547 13.6554L19.5807 15.7428L21.3282 14.6426C21.6622 13.7056 21.7611 12.3885 21.5405 10.8531ZM15.7589 11.256C14.1447 14.8922 12.9748 18.7119 12.8071 23.1168H13.6846C13.8514 18.8609 14.9771 15.1748 16.5586 11.6119L15.7588 11.2559L15.7589 11.256ZM7.0694 11.5797C6.68629 14.5022 7.52475 16.2069 8.74223 16.3961L9.25645 14.4801L7.62454 11.9372C7.44252 11.8134 7.2574 11.6942 7.06936 11.5797L7.0694 11.5797ZM17.4639 12.7296C17.1333 13.7723 16.9569 14.7345 16.9175 15.5671L18.1553 18.1262L18.8437 16.4049L18.1275 13.5602H18.1303C17.9287 13.286 17.7069 13.0089 17.4639 12.7297L17.4639 12.7296ZM3.28565 12.8014C2.87953 16.2976 2.90456 19.7312 3.85697 23.1169H4.76822C3.78961 19.7994 3.74803 16.4128 4.15584 12.9025L3.28575 12.8014H3.28565ZM13.5733 13.3215C13.2633 13.329 12.9661 13.3468 12.6812 13.3742L10.1016 14.7086L9.59325 16.6027C10.7506 17.176 12.4028 16.1424 13.5732 13.3215H13.5733ZM23.2632 15.0529C22.838 15.0925 22.4352 15.1491 22.0548 15.2214L19.6568 16.7315L18.9683 18.4498L21.7691 17.4039C22.2913 16.7855 22.8029 15.9941 23.2632 15.0529ZM15.8893 16.0841C15.1614 18.9406 15.7911 20.7337 16.9776 21.066L17.7145 19.2248L16.3976 16.5046C16.2368 16.364 16.067 16.2241 15.8893 16.0841ZM8.58984 17.2839C7.99575 19.2167 7.5464 21.1533 7.33153 23.1169H8.21339C8.42465 21.2549 8.85511 19.4029 9.42768 17.5401L8.58979 17.2839L8.58984 17.2839ZM21.2461 18.5334L18.5273 19.55L17.7978 21.3723C18.8786 22.08 20.6419 21.2501 22.1396 18.5876C21.8425 18.5591 21.5445 18.541 21.2461 18.5334V18.5334ZM16.7109 21.9859C16.6231 22.3475 16.5616 22.7246 16.5396 23.1169H17.4155C17.4366 22.8034 17.4882 22.4978 17.562 22.194L16.711 21.9859L16.7109 21.9859Z" fill="#FFC41E"/>
</g>
<defs>
<clipPath id="clip0_211_1214">
<rect width="24" height="24" fill="white"/>
</clipPath>
</defs>
</svg>
