<svg width="24" height="24" viewBox="0 0 24 24" fill="none" xmlns="http://www.w3.org/2000/svg">
<path d="M17.4427 2.19427C14.2927 0.709269 10.5278 1.66927 8.47275 4.47427L4.54275 9.82927C1.58025 13.8643 3.04275 19.6018 7.57275 21.7318C11.5702 23.6143 16.3252 21.8743 18.1777 17.8693L20.9603 11.8393C22.6327 8.20927 21.0653 3.90427 17.4427 2.19427Z" fill="#F3AD61"/>
<path d="M16.0252 4.90938C16.0252 5.18785 15.9146 5.45492 15.7177 5.65184C15.5208 5.84875 15.2537 5.95938 14.9752 5.95938C14.6968 5.95938 14.4297 5.84875 14.2328 5.65184C14.0359 5.45492 13.9252 5.18785 13.9252 4.90938C13.9252 4.6309 14.0359 4.36383 14.2328 4.16691C14.4297 3.97 14.6968 3.85938 14.9752 3.85938C15.2537 3.85938 15.5208 3.97 15.7177 4.16691C15.9146 4.36383 16.0252 4.6309 16.0252 4.90938ZM13.8727 11.4944C14.2368 11.4944 14.5859 11.3498 14.8433 11.0924C15.1006 10.835 15.2452 10.4859 15.2452 10.1219C15.2452 9.75787 15.1006 9.40876 14.8433 9.15137C14.5859 8.89398 14.2368 8.74938 13.8727 8.74938C13.5087 8.74938 13.1596 8.89398 12.9022 9.15137C12.6448 9.40876 12.5002 9.75787 12.5002 10.1219C12.5002 10.4859 12.6448 10.835 12.9022 11.0924C13.1596 11.3498 13.5087 11.4944 13.8727 11.4944ZM7.49775 15.5144C7.83192 15.5144 8.15241 15.3816 8.3887 15.1453C8.625 14.909 8.75775 14.5885 8.75775 14.2544C8.75775 13.9202 8.625 13.5997 8.3887 13.3634C8.15241 13.1271 7.83192 12.9944 7.49775 12.9944C7.16357 12.9944 6.84309 13.1271 6.60679 13.3634C6.3705 13.5997 6.23775 13.9202 6.23775 14.2544C6.23775 14.5885 6.3705 14.909 6.60679 15.1453C6.84309 15.3816 7.16357 15.5144 7.49775 15.5144ZM9.35025 17.9069C9.35025 18.1376 9.25859 18.3589 9.09543 18.5221C8.93227 18.6852 8.71099 18.7769 8.48025 18.7769C8.24951 18.7769 8.02822 18.6852 7.86506 18.5221C7.70191 18.3589 7.61025 18.1376 7.61025 17.9069C7.61025 17.6761 7.70191 17.4548 7.86506 17.2917C8.02822 17.1285 8.24951 17.0369 8.48025 17.0369C8.71099 17.0369 8.93227 17.1285 9.09543 17.2917C9.25859 17.4548 9.35025 17.6761 9.35025 17.9069ZM18.3727 11.8619C18.6035 11.8619 18.8248 11.7702 18.9879 11.6071C19.1511 11.4439 19.2427 11.2226 19.2427 10.9919C19.2427 10.7611 19.1511 10.5398 18.9879 10.3767C18.8248 10.2135 18.6035 10.1219 18.3727 10.1219C18.142 10.1219 17.9207 10.2135 17.7576 10.3767C17.5944 10.5398 17.5027 10.7611 17.5027 10.9919C17.5027 11.2226 17.5944 11.4439 17.7576 11.6071C17.9207 11.7702 18.142 11.8619 18.3727 11.8619Z" fill="#D3883E"/>
</svg>
