<svg width="24" height="24" viewBox="0 0 24 24" fill="none" xmlns="http://www.w3.org/2000/svg">
<path d="M9.73125 18.7913L7.86937 15.1201C7.86937 15.1201 7.55437 13.0557 7.76437 10.322C7.94812 7.93695 8.41125 6.25883 9.65062 4.76445C10.6125 3.6057 12.1425 2.43008 13.6631 1.87883C15.1837 1.32758 15.3412 1.30133 15.3412 1.48508C15.3412 1.66883 12.9562 2.74695 11.3044 5.0532C9.6525 7.35945 9.73125 9.56258 9.62625 11.0045C9.52125 12.4463 9.73125 18.7913 9.73125 18.7913Z" fill="#717F35"/>
<path d="M3.64875 9.03954C4.65 10.8339 5.60062 14.1845 6.6975 16.712C7.71937 19.0708 8.78812 20.8895 9.73125 21.7802C10.6744 22.6708 11.535 22.592 11.9081 22.2789C12.4687 21.8064 12.1744 20.4958 12.1706 19.7364C12.1631 18.3789 12.4219 17.4414 12.8269 16.7477C13.1831 16.1383 13.8506 15.5195 14.5575 15.7314C15.4069 15.9864 15.9731 16.8264 16.2356 17.2202C16.4981 17.6139 16.8919 18.3995 17.0737 18.3995C17.2556 18.3995 16.9575 16.3727 16.0931 15.1839C15.2381 14.0083 14.01 13.7777 12.9075 14.2577C10.4456 15.3302 10.3762 18.5852 10.3762 18.5852C10.3762 18.5852 8.81625 17.2708 7.74187 13.8377C7.47937 12.9995 6.65437 10.022 5.835 8.80704C4.575 6.93767 3.22875 6.54767 2.46937 6.28517C1.71 6.02267 0.791246 5.76017 0.764996 5.91767C0.738746 6.07704 2.52187 7.02017 3.64875 9.03954Z" fill="#94A61D"/>
<path d="M11.145 19.7982C11.07 19.277 10.8338 17.9138 10.9275 16.202C10.9913 15.0113 11.3194 13.0332 13.1231 12.3845C14.5744 11.8632 15.7069 11.8576 17.2519 12.6001C18.6844 13.2882 17.9944 12.3695 17.3213 12.0207C16.8544 11.7788 14.865 10.7738 12.8944 11.4432C10.6031 12.2213 9.99188 14.9588 9.99188 14.9588C9.99188 14.9588 9.825 11.9813 10.4381 10.5132C11.0513 9.04321 12.1538 7.84133 11.8519 7.74196C11.7394 7.70446 10.3481 8.27258 9.56438 10.067C8.72813 11.9832 8.69063 13.7138 8.745 14.7001C8.79938 15.6863 8.94 16.6557 8.94 16.6557C8.94 16.6557 9.33 17.5613 9.78938 18.1482C10.215 18.6938 11.1675 19.9576 11.145 19.7982Z" fill="#FFBD13"/>
<path d="M12.6056 5.03436C12.5138 5.01561 11.5388 5.39061 11.0475 6.56811C10.5563 7.74561 10.9744 8.71686 10.9744 8.71686C10.9744 8.71686 12.2869 7.57498 12.5325 6.86436C12.7781 6.15186 12.7294 5.05873 12.6056 5.03436Z" fill="#FFBD13"/>
<path d="M15.0619 8.37205C15.075 8.31205 14.0681 7.46455 13.2937 7.45143C12.5212 7.4383 11.5762 8.10205 11.5762 8.10205C11.5762 8.10205 11.8987 8.87455 13.1231 9.00955C14.0062 9.10893 15.0375 8.48268 15.0619 8.37205ZM12.975 6.94893C13.0612 7.02205 14.055 6.91143 14.6306 6.2308C15.2362 5.51455 15.2456 3.89268 15.0619 3.89268C14.8425 3.89268 14.6944 4.12518 14.3137 4.35955C13.9331 4.59205 13.2337 5.28018 13.05 5.80705C12.8644 6.3358 12.8887 6.8758 12.975 6.94893ZM13.9519 7.06518C13.9725 7.28268 14.7412 8.0008 15.5944 8.0383C16.4475 8.0758 17.2012 7.7533 17.2012 7.6258C17.2012 7.4983 16.6575 6.54393 15.7144 6.45018C14.6944 6.3508 13.9425 6.9658 13.9519 7.06518ZM15.2081 6.13893C15.3094 6.3133 16.4831 6.09393 17.0344 5.34018C17.5425 4.64643 17.4469 3.86268 17.3925 3.76143C17.3381 3.66018 16.5206 3.74268 15.8681 4.49643C15.3281 5.1208 15.1162 5.97768 15.2081 6.13893ZM16.4287 6.13893C16.4231 6.30393 16.9144 6.97518 17.475 7.23205C18.3187 7.6183 19.3931 7.38768 19.44 7.24143C19.485 7.09518 18.9806 6.10518 18.3019 5.80893C17.5031 5.46018 16.4381 5.87268 16.4287 6.13893ZM17.6325 5.38518C17.6325 5.60643 18.9544 5.56893 19.4231 5.2483C19.8919 4.92768 20.3775 4.0633 20.4881 3.94518C20.5987 3.82705 20.6175 3.70705 20.3775 3.63393C20.1394 3.5608 18.9637 3.5233 18.285 4.02955C17.6062 4.5358 17.6325 5.34018 17.6325 5.38518ZM19.1194 5.67955C18.9975 5.74893 19.1831 5.9833 19.275 6.17455C19.3669 6.36768 19.6781 7.14768 20.3587 7.48705C21.0094 7.81143 21.8925 7.7908 21.9281 7.74393C21.9656 7.69893 21.7744 6.60768 21.1106 6.1108C20.3025 5.50518 19.3481 5.55205 19.1194 5.67955ZM20.1187 5.25768C20.1412 5.36455 21.0375 5.83518 21.7987 5.9008C22.56 5.96643 23.3137 5.2033 23.3231 5.1208C23.3325 5.0383 22.635 4.29393 21.8456 4.32205C20.8087 4.35768 20.0925 5.1283 20.1187 5.25768ZM16.7606 9.31518C16.7456 9.1408 15.3187 9.11268 14.595 9.86643C13.8694 10.6183 13.8506 11.3346 13.8506 11.3346L14.3737 11.6739C14.3737 11.6739 15.375 11.2333 15.915 10.7102C16.545 10.1008 16.7775 9.52518 16.7606 9.31518Z" fill="#FFBD13"/>
<path d="M15.4613 14.1599C15.6919 14.1693 15.645 13.1962 15.4238 12.5905C15.1894 11.9474 14.5706 11.4899 14.5706 11.4899L13.8 11.6549C13.8 11.6549 13.8169 12.418 14.1881 13.0799C14.6813 13.9537 15.2494 14.1505 15.4613 14.1599ZM15.6769 11.8105C15.6769 11.8105 15.6 12.5962 15.9619 13.3255C16.3388 14.0868 17.1638 14.5274 17.3475 14.4543C17.5313 14.3812 17.4394 13.453 17.3194 13.0124C17.1994 12.5718 16.65 11.8837 16.65 11.8837L15.6769 11.8105ZM15.5756 11.4262C15.5756 11.4262 16.1625 10.4718 16.8788 10.1774C17.9006 9.75742 19.2019 10.2787 19.2094 10.4718C19.2188 10.6649 18.3281 11.3155 17.8875 11.4824C17.4469 11.6474 16.5469 11.803 16.5469 11.803L15.5756 11.4262ZM19.2469 11.4524C18.4669 11.4862 17.6963 11.9305 17.6775 12.178C17.6588 12.4255 18.3469 12.9768 19.3106 12.9768C20.2744 12.9768 20.8706 12.3337 20.8706 12.2418C20.8725 12.1499 20.3213 11.4074 19.2469 11.4524Z" fill="#FFBD13"/>
<path d="M17.9081 12.521C17.7038 12.4835 17.4863 13.5223 17.835 14.3473C18.1838 15.1741 19.1194 15.5866 19.1944 15.6148C19.4344 15.7048 19.3688 14.2385 19.0838 13.6404C18.8231 13.0966 18.2006 12.5773 17.9081 12.521ZM19.2469 13.2504C19.1663 13.391 19.3481 14.3341 19.77 14.8835C20.43 15.746 21.4312 15.8098 21.5325 15.7648C21.6337 15.7198 21.5137 14.4054 20.8725 13.7829C20.2556 13.1848 19.32 13.121 19.2469 13.2504Z" fill="#FFBD13"/>
</svg>
