<svg width="24" height="24" viewBox="0 0 24 24" fill="none" xmlns="http://www.w3.org/2000/svg">
<path d="M7.05701 6.193C7.11587 6.16386 7.1799 6.14661 7.24543 6.14223C7.31096 6.13784 7.37671 6.14641 7.43893 6.16745C7.50115 6.18848 7.55862 6.22157 7.60805 6.26481C7.65748 6.30806 7.6979 6.36062 7.72701 6.4195L8.12251 7.2215L8.92901 6.3565C9.0194 6.25952 9.1446 6.20241 9.27708 6.19773C9.40957 6.19304 9.53849 6.24116 9.63551 6.3315C9.83701 6.5205 9.84801 6.837 9.66001 7.039L8.59601 8.1805L8.99751 8.9935L9.66301 8.387C9.71159 8.34279 9.76841 8.30859 9.83021 8.28635C9.89201 8.26411 9.95759 8.25426 10.0232 8.25737C10.0888 8.26048 10.1532 8.27649 10.2126 8.30448C10.272 8.33247 10.3253 8.37189 10.3695 8.4205C10.4139 8.4691 10.4482 8.52598 10.4705 8.58788C10.4929 8.64978 10.5027 8.71547 10.4996 8.7812C10.4965 8.84693 10.4805 8.9114 10.4524 8.97091C10.4243 9.03042 10.3848 9.0838 10.336 9.128L9.45851 9.927L9.98651 10.9965C10.0454 11.1154 10.0546 11.2528 10.0122 11.3785C9.96977 11.5042 9.87914 11.6079 9.76026 11.6667C9.64138 11.7256 9.50397 11.7349 9.37828 11.6924C9.25258 11.65 9.14889 11.5594 9.09001 11.4405L8.54251 10.331L7.56051 10.53C7.43036 10.5563 7.29507 10.5299 7.18443 10.4564C7.07378 10.383 6.99683 10.2687 6.97051 10.1385C6.94419 10.0083 6.97065 9.87306 7.04407 9.76242C7.11749 9.65177 7.23186 9.57482 7.36201 9.5485L8.08401 9.4025L7.68651 8.5975L6.16651 8.8265C6.03523 8.84619 5.9015 8.81293 5.79475 8.73402C5.68799 8.65511 5.61695 8.53703 5.59726 8.40575C5.57757 8.27447 5.61083 8.14074 5.68974 8.03398C5.76865 7.92723 5.88673 7.85619 6.01801 7.8365L7.22101 7.655L6.83051 6.8635C6.8013 6.80461 6.78398 6.74054 6.77956 6.67496C6.77514 6.60937 6.78369 6.54356 6.80472 6.48128C6.82576 6.419 6.85887 6.36149 6.90216 6.31202C6.94545 6.26255 6.99807 6.22211 7.05701 6.193ZM18.357 10.6245C18.4223 10.6177 18.4884 10.6239 18.5513 10.6426C18.6143 10.6614 18.6729 10.6923 18.7239 10.7337C18.7749 10.7752 18.8172 10.8262 18.8485 10.884C18.8797 10.9418 18.8993 11.0052 18.906 11.0705C19.006 12.024 18.586 12.9255 17.7925 13.4625C17.6824 13.5307 17.5502 13.5537 17.4236 13.5265C17.2969 13.4994 17.1857 13.4242 17.1133 13.3169C17.0408 13.2095 17.0128 13.0783 17.035 12.9507C17.0573 12.8231 17.128 12.709 17.2325 12.6325C17.4691 12.4756 17.6576 12.2565 17.7775 11.9992C17.8973 11.7419 17.9437 11.4565 17.9115 11.1745C17.9046 11.1091 17.9106 11.043 17.9293 10.98C17.9479 10.9169 17.9788 10.8582 18.0202 10.8071C18.0616 10.756 18.1126 10.7136 18.1704 10.6823C18.2282 10.6509 18.2916 10.6313 18.357 10.6245Z" fill="#008B37"/>
<path fill-rule="evenodd" clip-rule="evenodd" d="M5.05451 20.9993C6.53651 20.9243 7.462 20.5123 8.037 19.9033C8.238 20.1903 8.587 20.3583 8.9655 20.2993C10.9525 19.9893 15.3805 19.1733 20.357 17.4523C20.544 17.3931 20.7073 17.2759 20.8232 17.1177C20.9391 16.9595 21.0016 16.7684 21.0016 16.5723C21.0016 16.3762 20.9391 16.1851 20.8232 16.0269C20.7073 15.8687 20.544 15.7515 20.357 15.6923C19.7927 15.4976 19.2365 15.3141 18.6885 15.1418C19.681 14.6183 20.4425 13.7398 20.7405 12.6248C21.413 10.1123 19.648 7.92629 17.3575 8.62179C17.196 7.46879 17.57 6.40679 18.5515 5.83929L18.0515 4.97229C16.8375 5.67379 16.3275 6.87429 16.323 8.10379C15.4625 7.44529 14.4195 7.42029 13.533 7.88379C13.5293 7.73533 13.5081 7.58782 13.47 7.44429C13.3175 6.87379 12.91 6.46629 12.35 6.23179C12.235 5.70379 11.97 5.06279 11.4695 4.58479C10.8895 4.03179 10.0565 3.75679 8.971 4.02379C8.70413 3.65892 8.34575 3.3709 7.932 3.18879C7.2645 2.90129 6.426 2.90729 5.48001 3.45179C4.49151 3.91429 4.01501 4.59479 3.88351 5.30829C3.79451 5.79329 3.87201 6.25329 3.99951 6.61629C3.16051 7.35179 2.90801 8.19179 3.02851 8.98329C3.13301 9.66779 3.506 10.2528 3.872 10.6498C3.743 11.2433 3.84351 11.8103 4.22301 12.2628C4.32101 12.3791 4.43267 12.483 4.55801 12.5743C4.55576 12.5945 4.55476 12.6149 4.555 12.6353C4.5665 13.5643 4.6195 14.2988 4.81 14.8698C4.196 15.1043 3.617 15.5808 3.089 16.2998C3.03081 16.3788 2.99942 16.4744 2.99942 16.5725C2.99942 16.6707 3.03081 16.7663 3.089 16.8453C3.61251 17.5583 4.18651 18.0333 4.79501 18.2693C4.63301 18.8233 4.57001 19.5523 4.55551 20.5083C4.55395 20.5739 4.56585 20.6391 4.59049 20.6999C4.61512 20.7607 4.65195 20.8158 4.69871 20.8618C4.74547 20.9078 4.80117 20.9438 4.86237 20.9674C4.92356 20.9911 4.98895 21.0019 5.05451 20.9993ZM8.96 16.5723C8.96 17.0873 8.94 17.6023 8.858 18.0898V19.3028C9.343 19.2263 9.97151 19.1203 10.715 18.9783V17.1273H11.715V18.7798C13.4173 18.428 15.1056 18.0121 16.7765 17.5328V16.5728H17.7765V17.2378C18.448 17.0328 19.1365 16.8118 19.8365 16.5728C18.8773 16.2447 17.9103 15.9396 16.9365 15.6578L16.8815 15.6628L15.235 15.1888C14.9757 15.1211 14.7207 15.0561 14.47 14.9938V17.1273H13.47V14.7518C11.9442 14.3925 10.4059 14.089 8.858 13.8418V15.0548C8.9395 15.5423 8.96 16.0573 8.96 16.5723ZM7.858 18.0023V15.1423C7.788 14.7623 7.6755 14.4408 7.5035 14.1758C7.241 13.7713 6.73551 13.3508 5.5695 13.1958C5.59501 13.8073 5.6525 14.2358 5.758 14.5523L6.062 15.4633L5.166 15.8053C4.8545 15.9243 4.5095 16.1613 4.1505 16.5723C4.5055 16.9793 4.848 17.2158 5.1565 17.3358L6.01301 17.6688L5.7545 18.5513C5.6595 18.8758 5.60051 19.3203 5.57201 19.9483C6.73651 19.7933 7.241 19.3733 7.5035 18.9693C7.6755 18.7043 7.78801 18.3828 7.85851 18.0028M8.332 12.9678C7.7595 12.5238 7.0765 12.1778 6.2415 12.1053C5.5645 12.0463 5.175 11.8403 4.989 11.6188C4.824 11.4223 4.7465 11.1253 4.9055 10.6653L5.01451 10.3503L4.76651 10.1283C4.44901 9.84429 4.0975 9.35679 4.0175 8.83279C3.9465 8.36479 4.07601 7.77479 4.90501 7.17429L5.2625 6.91579L5.0505 6.52829C4.9155 6.28179 4.7955 5.88329 4.8675 5.49029C4.9335 5.13229 5.173 4.69629 5.9205 4.35129L5.94251 4.34129L5.963 4.32929C6.675 3.91429 7.188 3.95829 7.538 4.10929C7.91701 4.27179 8.1815 4.59429 8.3 4.83429L8.4955 5.22929L8.9115 5.08579C9.879 4.75079 10.437 4.98279 10.78 5.31029C11.1635 5.67629 11.361 6.24429 11.412 6.66679L11.4515 6.99679L11.7715 7.08829C12.2395 7.22179 12.4385 7.45579 12.505 7.70379C12.58 7.98329 12.525 8.42029 12.185 9.00779C11.9292 9.45288 11.7688 9.94634 11.714 10.4568C11.5555 11.2433 11.649 12.0358 11.9455 12.7578C11.9895 12.9353 12.0355 13.1068 12.079 13.2698L12.0965 13.3338C12.1052 13.3651 12.1127 13.3961 12.119 13.4268C10.793 13.1488 9.709 12.9618 8.96651 12.8458C8.74708 12.811 8.52289 12.8541 8.332 12.9678ZM17.027 14.6428C16.0284 14.3566 15.0235 14.0929 14.013 13.8518C13.5263 13.4833 13.1422 12.9961 12.8975 12.4368C12.7475 11.8138 12.644 11.2063 12.7 10.6243C12.71 10.5753 12.7217 10.5263 12.735 10.4773C13.0115 9.44429 13.6815 8.83079 14.32 8.63879C14.914 8.46029 15.6025 8.60229 16.16 9.36079L16.6335 10.0058L17.3665 9.68479C18.228 9.30679 18.8945 9.52829 19.32 9.98029C19.7775 10.4668 20.051 11.3328 19.775 12.3663C19.4565 13.5553 18.3745 14.4513 17.027 14.6428Z" fill="#008B37"/>
</svg>
