<svg width="20" height="20" viewBox="0 0 20 20" fill="none" xmlns="http://www.w3.org/2000/svg">
<g clip-path="url(#clip0_211_1212)">
<path d="M19.7266 1.60156C20.0938 1.23438 20.0938 0.640627 19.7266 0.277346C19.3594 -0.0859356 18.7656 -0.0898418 18.4023 0.277346L14.9609 3.71094C14.5938 4.07813 14.5938 4.67188 14.9609 5.03516C15.3281 5.39844 15.9219 5.40235 16.2852 5.03516L19.7227 1.59766L19.7266 1.60156ZM11.9336 1.06641C11.6914 0.824221 11.293 0.824221 11.0508 1.06641L10.6055 1.50781C9.14062 2.97266 9.14062 5.34766 10.6055 6.8125L11.0117 7.21875L9.82031 8.41016C9.6875 7.34375 9.21484 6.3086 8.39453 5.48828L7.95313 5.04688C7.71094 4.80469 7.3125 4.80469 7.07031 5.04688L6.62891 5.48828C5.16406 6.95313 5.16406 9.32813 6.62891 10.793L7.03516 11.1992L5.84375 12.3906C5.71094 11.3242 5.23828 10.2891 4.41797 9.46875L3.97656 9.02344C3.73438 8.78125 3.33594 8.78125 3.09375 9.02344L2.65234 9.46485C1.1875 10.9297 1.1875 13.3047 2.65234 14.7695L3.05859 15.1758L0.367188 17.8672C-0.121094 18.3555 -0.121094 19.1484 0.367188 19.6367C0.855469 20.125 1.64844 20.125 2.13672 19.6367L4.82812 16.9453L5.30469 17.4219C6.76953 18.8867 9.14453 18.8867 10.6094 17.4219L11.0508 16.9805C11.293 16.7383 11.293 16.3398 11.0508 16.0977L10.6094 15.6563C9.75781 14.8047 8.67188 14.3242 7.55859 14.2148L8.80469 12.9688L9.28125 13.4453C10.7461 14.9102 13.1211 14.9102 14.5859 13.4453L15.0273 13.0039C15.2695 12.7617 15.2695 12.3633 15.0273 12.1211L14.5859 11.6797C13.7344 10.8281 12.6484 10.3477 11.5352 10.2383L12.7813 8.99219L13.2578 9.46875C14.7227 10.9336 17.0977 10.9336 18.5625 9.46875L19.0039 9.02344C19.2461 8.78125 19.2461 8.38281 19.0039 8.14063L18.5625 7.69531C18.3594 7.49219 18.1484 7.3125 17.9219 7.15235L19.7266 5.35156C20.0938 4.98438 20.0938 4.39063 19.7266 4.02735C19.3594 3.66406 18.7656 3.66016 18.4023 4.02735L16.082 6.34766C15.2773 6.17578 14.4414 6.20313 13.6484 6.42969C13.8867 5.59766 13.9062 4.71875 13.7031 3.87891L15.9766 1.60156C16.3438 1.23438 16.3438 0.640627 15.9766 0.277346C15.6094 -0.0859356 15.0156 -0.0898418 14.6523 0.277346L12.8555 2.06641C12.7109 1.8711 12.5508 1.6836 12.3711 1.50781L11.9336 1.06641Z" fill="#FFC41E"/>
</g>
<defs>
<clipPath id="clip0_211_1212">
<rect width="20" height="20" fill="white"/>
</clipPath>
</defs>
</svg>
